<?xml version="1.0" encoding="utf-8"?>
<!-- Generator: Adobe Illustrator 23.0.4, SVG Export Plug-In . SVG Version: 6.00 Build 0)  -->
<svg version="1.1" id="Layer_1" xmlns="http://www.w3.org/2000/svg" xmlns:xlink="http://www.w3.org/1999/xlink" x="0px" y="0px"
	 viewBox="0 0 158.74 73.7" style="enable-background:new 0 0 158.74 73.7;" xml:space="preserve">
<style type="text/css">
	.st0{clip-path:url(#SVGID_2_);fill-rule:evenodd;clip-rule:evenodd;}
	.st1{clip-path:url(#SVGID_2_);}
	.st2{clip-path:url(#SVGID_2_);fill-rule:evenodd;clip-rule:evenodd;fill:#FFFFFF;}
	.st3{clip-path:url(#SVGID_2_);fill-rule:evenodd;clip-rule:evenodd;fill:#0072BC;}
	.st4{clip-path:url(#SVGID_4_);}
	.st5{clip-path:url(#SVGID_6_);}
	.st6{clip-path:url(#SVGID_8_);}
	.st7{clip-path:url(#SVGID_10_);fill:#FFFFFF;}
	.st8{clip-path:url(#SVGID_10_);fill:#A7A9AC;}
	.st9{clip-path:url(#SVGID_10_);fill:#32C5F4;}
	.st10{clip-path:url(#SVGID_10_);}
	.st11{fill:#FFFFFF;}
	.st12{fill:#77787B;}
	.st13{fill:url(#SVGID_11_);}
	.st14{clip-path:url(#SVGID_13_);fill:url(#SVGID_14_);}
	.st15{fill:#010101;}
	.st16{fill:#FDB816;}
	.st17{fill:#F37124;}
	.st18{fill:#F8991D;}
	.st19{fill:#333333;}
</style>
<g>
	<defs>
		<rect id="SVGID_1_" x="-1745.94" y="17.72" width="155.91" height="38.26"/>
	</defs>
	<clipPath id="SVGID_2_">
		<use xlink:href="#SVGID_1_"  style="overflow:visible;"/>
	</clipPath>
	<path class="st0" d="M-1706.76,38.22h1.46c2.71,0,3.73,1.35,3.73,4.06c0,2.67-0.88,4.06-3.29,4.06h-1.9V38.22z M-1706.76,27.39
		h1.72c2.01,0,2.96,1.28,2.96,3.73c0,2.19-1.32,3.36-3.04,3.36h-1.64V27.39z M-1711.29,50.06h7.17c5.16,0,7.1-3.29,7.1-7.64
		c0-3.4-1.35-5.23-3.66-6.25c2.2-0.88,3.15-3.26,3.15-5.52c0-4.5-2.16-6.99-7.02-6.99h-6.73V50.06z"/>
	<rect x="-1695.24" y="23.66" class="st1" width="4.1" height="26.41"/>
	<path class="st1" d="M-1680.17,30.39v15.44c-0.95,0.69-1.75,1.24-2.63,1.24c-0.88,0-1.46-0.44-1.46-1.43V30.39h-4.1V46.3
		c0,2.56,1.28,4.13,3.44,4.13c2.38,0,3.26-0.88,4.98-2.34v1.97h3.88V30.39H-1680.17z"/>
	<path class="st0" d="M-1669.46,37.63V36.6c0-2.27,0.8-3.22,2.27-3.22c1.46,0,2.27,0.95,2.27,3.22v1.02H-1669.46z M-1660.83,37.34
		c0-4.32-1.68-7.32-6.36-7.32c-4.68,0-6.36,3-6.36,7.32v5.78c0,4.32,1.68,7.32,6.36,7.32c4.57,0,6.29-2.86,6.36-7.03h-4.1v0.44
		c0,2.27-0.81,3.22-2.27,3.22c-1.46,0-2.27-0.95-2.27-3.22v-2.85h8.63V37.34z"/>
	<path class="st1" d="M-1590.04,26.48c0,1.56-1.33,2.88-2.89,2.88c-1.64,0-2.88-1.26-2.88-2.88c0-1.59,1.29-2.88,2.88-2.88
		C-1591.3,23.6-1590.04,24.85-1590.04,26.48 M-1595.17,26.46c0,1.23,1,2.31,2.24,2.31c1.25,0,2.23-1.02,2.23-2.25
		c0-1.25-0.99-2.31-2.23-2.31C-1594.17,24.21-1595.17,25.22-1595.17,26.46 M-1592.4,28.05l-0.88-1.4h-0.04v1.4h-0.55v-3.17h0.96
		c0.75,0,1.06,0.32,1.06,0.8c0,0.53-0.33,0.86-0.84,0.92c0.07,0.08,0.19,0.26,0.31,0.45l0.66,1H-1592.4z M-1592.96,25.32h-0.36v0.97
		h0.22c0.51,0,0.67-0.29,0.67-0.55C-1592.43,25.44-1592.56,25.32-1592.96,25.32"/>
	<path class="st1" d="M-1657.21,33.75V46c0,3,1.72,4.43,4.79,4.43c1.02,0,1.5-0.07,2.05-0.22V46.7h-1.35
		c-0.95,0-1.39-0.59-1.39-1.61V33.75h2.74v-3.36h-2.74v-5.31h-4.1v5.31h-2.27v3.36H-1657.21z"/>
	<path class="st0" d="M-1640.03,43.85c0,2.27-0.8,3.22-2.27,3.22c-1.46,0-2.27-0.95-2.27-3.22V36.6c0-2.27,0.81-3.22,2.27-3.22
		c1.46,0,2.27,0.95,2.27,3.22V43.85z M-1648.67,43.11c0,4.32,1.68,7.32,6.36,7.32s6.36-3,6.36-7.32v-5.78
		c0-4.32-1.68-7.32-6.36-7.32s-6.36,3-6.36,7.32V43.11z"/>
	<path class="st0" d="M-1625.15,43.85c0,2.27-0.8,3.22-2.27,3.22c-1.46,0-2.27-0.95-2.27-3.22V36.6c0-2.27,0.81-3.22,2.27-3.22
		c1.46,0,2.27,0.95,2.27,3.22V43.85z M-1633.79,43.11c0,4.32,1.68,7.32,6.36,7.32c4.68,0,6.36-3,6.36-7.32v-5.78
		c0-4.32-1.68-7.32-6.36-7.32c-4.68,0-6.36,3-6.36,7.32V43.11z"/>
	<path class="st1" d="M-1617.55,33.75V46c0,3,1.72,4.43,4.79,4.43c1.02,0,1.5-0.07,2.05-0.22V46.7h-1.35
		c-0.95,0-1.39-0.59-1.39-1.61V33.75h2.74v-3.36h-2.74v-5.31h-4.1v5.31h-2.27v3.36H-1617.55z"/>
	<path class="st1" d="M-1604.07,50.06V34.63c0.95-0.69,1.75-1.24,2.63-1.24s1.46,0.44,1.46,1.43v15.25h4.1V34.15
		c0-2.56-1.28-4.13-3.44-4.13c-2.38,0-3.26,0.88-4.76,2.19v-8.56h-4.1v26.41H-1604.07z"/>
	<path class="st2" d="M-1720.89,36.68c0,9.98-4.89,18.08-10.93,18.08c-6.04,0-10.93-8.09-10.93-18.08c0-9.98,4.89-18.08,10.93-18.08
		C-1725.78,18.6-1720.89,26.7-1720.89,36.68"/>
	<path class="st3" d="M-1730.28,27.17l3.17,3.16l-3.16,3.16L-1730.28,27.17z M-1730.28,46.54l3.17-3.17l-3.16-3.16L-1730.28,46.54z
		 M-1733.66,36.85l-6.84-6.86l1.98-1.98l5.45,5.45V20.4l9.91,9.91l-6.55,6.54l6.55,6.54l-9.91,9.91V40.24l-5.45,5.45l-1.98-1.98
		L-1733.66,36.85z M-1731.83,55.98c8.36,0,14.11-3.97,14.11-19.13c0-15.16-5.76-19.13-14.11-19.13c-8.36,0-14.12,3.97-14.12,19.13
		C-1745.94,52.01-1740.18,55.98-1731.83,55.98"/>
</g>
<g>
	<defs>
		<rect id="SVGID_3_" x="-913.65" y="28.59" width="155.91" height="16.53"/>
	</defs>
	<clipPath id="SVGID_4_">
		<use xlink:href="#SVGID_3_"  style="overflow:visible;"/>
	</clipPath>
	<path class="st4" d="M-812.23,40.1h-5.59l-1.09,3.17h-1.78l4.58-12.88h2.17l4.6,12.88h-1.79L-812.23,40.1z M-817.35,38.76h4.64
		l-1.63-4.79c-0.3-0.91-0.46-1.42-0.66-2.09h-0.04c-0.21,0.66-0.36,1.18-0.66,2.09L-817.35,38.76z"/>
	<polygon class="st4" points="-804.6,43.28 -806.33,43.28 -806.33,31.74 -810.15,31.74 -810.15,30.39 -800.78,30.39 -800.78,31.74 
		-804.6,31.74 	"/>
	<path class="st4" d="M-788.66,30.39h2.22v12.88h-1.71v-3.61c0-2.26,0.1-4.92,0.11-7.18h-0.06c-0.47,1.08-0.82,1.92-1.33,2.93
		l-2.62,5.17h-1.31l-2.62-5.17c-0.51-1.01-0.86-1.84-1.33-2.93h-0.06c0.02,2.26,0.12,4.92,0.12,7.18v3.61h-1.71V30.39h2.22
		l4.01,7.87h0.06L-788.66,30.39z"/>
	<path class="st4" d="M-778.48,43.5c-4.29,0-5.49-2.51-5.49-6.67s1.2-6.67,5.49-6.67c4.29,0,5.49,2.51,5.49,6.67
		S-774.19,43.5-778.48,43.5 M-778.48,42.08c2.89,0,3.68-1.69,3.68-5.24s-0.8-5.24-3.68-5.24c-2.89,0-3.69,1.69-3.69,5.24
		S-781.37,42.08-778.48,42.08"/>
	<path class="st4" d="M-763.83,39.7c0-2.05-1.39-2.2-3.23-2.26c-2.24-0.08-4.05-0.82-4.05-3.61c0-2.89,2.39-3.67,4.9-3.67
		c0.63,0,2.15,0.06,3.21,0.44v1.42c-1.22-0.4-2.43-0.44-3.25-0.44c-1.94,0-3.04,0.74-3.04,2.11c0,1.96,1.39,1.92,3.13,2.03
		c2.09,0.13,4.14,0.66,4.14,3.78c0,3.12-2.64,3.99-5.24,3.99c-0.63,0-2.64-0.08-3.74-0.53v-1.5c1.23,0.46,2.96,0.53,3.78,0.53
		C-764.78,42-763.83,41.07-763.83,39.7"/>
	<path class="st4" d="M-759.2,32.53c-0.93,0-1.45-0.54-1.45-1.43c0-0.89,0.52-1.43,1.45-1.43c0.93,0,1.45,0.54,1.45,1.43
		C-757.74,31.99-758.26,32.53-759.2,32.53 M-759.2,32.29c0.79,0,1.18-0.46,1.18-1.19c0-0.73-0.39-1.19-1.18-1.19
		c-0.79,0-1.18,0.46-1.18,1.19C-760.37,31.83-759.99,32.29-759.2,32.29 M-758.61,31.79h-0.27l-0.24-0.5h-0.34v0.5h-0.25v-1.42h0.55
		c0.39,0,0.56,0.1,0.56,0.46c0,0.21-0.13,0.39-0.28,0.42L-758.61,31.79z M-759.13,31.09c0.22,0,0.27-0.05,0.27-0.27
		c0-0.17-0.06-0.23-0.27-0.23h-0.34v0.5H-759.13z"/>
	<path class="st4" d="M-913.65,45.11h23.82V28.59h-23.82V45.11z M-908.13,42.97h-2.72V30.73h2.72c2.82,0,5.18,2.8,5.18,6.1
		C-902.95,40.23-905.31,42.97-908.13,42.97 M-892.64,42.97h-2.72c-2.82,0-5.17-2.75-5.17-6.15c0-3.3,2.35-6.1,5.17-6.1h2.72V42.97z"
		/>
	<path class="st4" d="M-827.69,30.39l-3.22,5.83l-3.11-5.83h-2.91c0.54,0.99,4.35,8.16,4.35,8.16v4.73h3.13c0-0.64,0-4.71,0-4.71
		s3.96-7.18,4.52-8.18H-827.69z"/>
	<path class="st4" d="M-862.66,38.77c0,2.29-0.8,2.81-3.04,2.81c-2.24,0-3.04-0.52-3.04-2.81v-3.86c0-2.23,0.8-2.71,3.04-2.71
		c2.24,0,3.04,0.48,3.04,2.71V38.77z M-861.38,31.11c-0.89-0.62-2.38-0.94-4.33-0.94c-1.9,0-3.28,0.26-4.34,0.95
		c-1.1,0.71-1.62,1.91-1.62,3.77v4.06c0,1.87,0.54,3.14,1.61,3.76c0.87,0.6,2.28,0.89,4.35,0.89c2.04,0,3.49-0.29,4.32-0.87
		c1.08-0.67,1.64-1.97,1.64-3.78v-4.06C-859.74,33.11-860.29,31.84-861.38,31.11"/>
	<path class="st4" d="M-876.4,38.46c0,2.26-1.2,2.83-2.21,2.83h-3.57v-9h3.57c1.01,0,2.21,0.57,2.21,2.67V38.46z M-878.64,30.39
		h-6.45v12.88h6.9c3.41,0,4.67-1.39,4.67-5.12v-2.83C-873.52,31.77-874.95,30.39-878.64,30.39"/>
	<polygon class="st4" points="-854.7,30.39 -857.61,30.39 -857.61,43.28 -849.33,43.28 -849.33,41.13 -854.7,41.13 	"/>
	<path class="st4" d="M-840.66,36.46c2.29-0.21,2.78-1.33,2.78-2.94c0-1.42-0.6-2.14-1.26-2.55c-0.55-0.35-1.2-0.58-2.57-0.58h-6.03
		v12.89h6.11c1.88,0,2.66-0.37,3.02-0.62c0.62-0.42,1.43-1.34,1.43-2.8C-837.19,38.13-837.79,36.39-840.66,36.46 M-842.2,41.4h-2.63
		v-0.01v-9.15v-0.01h2.86c0.97,0,1.57,0.77,1.57,1.82c0,1.62-0.78,1.66-3.01,1.74v1.49c1.99-0.01,3.59-0.13,3.59,1.94
		C-839.82,40.26-840.48,41.4-842.2,41.4"/>
</g>
<g>
	<defs>
		<rect id="SVGID_5_" x="-1160.04" y="28.36" width="155.91" height="16.98"/>
	</defs>
	<clipPath id="SVGID_6_">
		<use xlink:href="#SVGID_5_"  style="overflow:visible;"/>
	</clipPath>
	<path class="st5" d="M-1060.67,38.72L-1060.67,38.72h4.78l-1.67-4.95c-0.32-0.95-0.5-1.5-0.68-2.18h-0.05l-0.72,2.18
		L-1060.67,38.72z M-1055.39,40.12L-1055.39,40.12h-5.78l-1.13,3.32h-1.81l4.69-13.4h2.26l4.74,13.4h-1.85L-1055.39,40.12z"/>
	<path class="st5" d="M-1049.97,42.39L-1049.97,42.39c-0.99-0.95-1.17-2.27-1.17-3.54v-8.81h1.81v9.17c0,0.68,0.05,1.59,0.72,2.27
		c0.54,0.55,1.26,0.77,2.53,0.77s1.99-0.23,2.53-0.77c0.68-0.68,0.77-1.59,0.77-2.27v-9.17h1.76v8.81c0,1.27-0.18,2.59-1.13,3.54
		c-0.86,0.86-2.03,1.27-3.93,1.27S-1049.16,43.26-1049.97,42.39"/>
	<path class="st5" d="M-1030.97,32.27L-1030.97,32.27c-0.63-0.64-1.44-0.82-2.48-0.82h-2.89v10.58h2.89c1.04,0,1.85-0.23,2.48-0.86
		c0.81-0.77,1.22-2.23,1.22-4.45S-1030.16,33.04-1030.97,32.27 M-1029.58,42.08L-1029.58,42.08c-0.9,0.95-2.08,1.36-3.88,1.36h-4.69
		v-13.4h4.69c1.81,0,2.98,0.36,3.88,1.32c1.08,1.09,1.67,2.86,1.67,5.36C-1027.91,39.26-1028.49,41.03-1029.58,42.08"/>
	<polygon class="st5" points="-1023.62,43.44 -1023.62,43.44 -1025.42,43.44 -1025.42,30.04 -1023.62,30.04 	"/>
	<path class="st5" d="M-1015.5,42.17L-1015.5,42.17c3.02,0,3.84-1.77,3.84-5.45c0-3.68-0.81-5.45-3.84-5.45
		c-2.98,0-3.79,1.77-3.79,5.45C-1019.29,40.4-1018.47,42.17-1015.5,42.17 M-1015.5,43.67L-1015.5,43.67c-4.42,0-5.64-2.63-5.64-6.95
		c0-4.31,1.22-6.9,5.64-6.9c4.47,0,5.69,2.59,5.69,6.9C-1009.81,41.03-1011.03,43.67-1015.5,43.67"/>
	<path class="st5" d="M-1005.34,31.81L-1005.34,31.81l-0.32-0.68c-0.09-0.18-0.27-0.55-0.32-0.73h-0.05
		c0.05,0.36,0.05,0.73,0.05,1.04v0.86h-0.36v-2.27h0.5l0.63,1.36h0.05l0.63-1.36h0.5v2.27h-0.36v-0.86V30.4
		c-0.09,0.18-0.23,0.55-0.32,0.73l-0.32,0.68H-1005.34z M-1007.33,32.31L-1007.33,32.31h-0.32v-1.95h-0.68v-0.32h1.71v0.32h-0.72
		V32.31z"/>
	<path class="st5" d="M-1138.38,43.12L-1138.38,43.12h-2.8c-2.93,0-5.32-2.86-5.32-6.4c0-3.45,2.39-6.36,5.32-6.36h2.8V43.12z
		 M-1154.35,43.12L-1154.35,43.12h-2.8V30.36h2.8c2.89,0,5.32,2.91,5.32,6.36C-1149.02,40.26-1151.46,43.12-1154.35,43.12
		 M-1160.04,45.35L-1160.04,45.35h24.55V28.22h-24.55V45.35z"/>
	<path class="st5" d="M-1071.32,30.04L-1071.32,30.04l-3.34,6.04l-3.2-6.04h-3.02c0.59,1,4.51,8.45,4.51,8.45v4.95h3.2v-4.91
		c0,0,4.11-7.45,4.69-8.49H-1071.32z"/>
	<path class="st5" d="M-1106.11,30.77L-1106.11,30.77c-0.9-0.64-2.44-0.95-4.47-0.95c-1.94,0-3.38,0.27-4.47,0.95
		c-1.13,0.77-1.67,2-1.67,3.95v4.22c0,1.91,0.54,3.22,1.67,3.91c0.9,0.59,2.35,0.91,4.47,0.91s3.61-0.32,4.47-0.91
		c1.13-0.68,1.67-2.04,1.67-3.91v-4.22C-1104.44,32.86-1104.98,31.54-1106.11,30.77 M-1107.42,38.72L-1107.42,38.72
		c0,2.41-0.86,2.95-3.16,2.95s-3.11-0.55-3.11-2.95v-4c0-2.32,0.81-2.82,3.11-2.82s3.16,0.5,3.16,2.82V38.72z"/>
	<path class="st5" d="M-1123.93,30.04L-1123.93,30.04h-6.63v13.4h7.13c3.47,0,4.78-1.45,4.78-5.36v-2.91
		C-1118.65,31.45-1120.1,30.04-1123.93,30.04 M-1121.63,38.4L-1121.63,38.4c0,2.36-1.22,2.95-2.26,2.95h-3.7v-9.36h3.7
		c1.04,0,2.26,0.59,2.26,2.77V38.4z"/>
	<polygon class="st5" points="-1099.21,30.04 -1099.21,30.04 -1102.23,30.04 -1102.23,43.44 -1093.65,43.44 -1093.65,41.21 
		-1099.21,41.21 	"/>
	<path class="st5" d="M-1086.3,41.49L-1086.3,41.49h-2.71v-0.05v-9.49h2.93c0.99,0,1.62,0.82,1.62,1.91c0,1.68-0.81,1.73-3.11,1.77
		v1.59c2.08-0.05,3.7-0.14,3.7,2C-1083.86,40.31-1084.54,41.49-1086.3,41.49 M-1084.72,36.35L-1084.72,36.35
		c2.35-0.23,2.89-1.41,2.89-3.09c0-1.45-0.63-2.23-1.31-2.63c-0.59-0.36-1.26-0.59-2.66-0.59h-6.23v13.4h6.32
		c1.94,0,2.71-0.41,3.11-0.68c0.63-0.41,1.44-1.36,1.44-2.91C-1081.15,38.08-1081.74,36.26-1084.72,36.35"/>
</g>
<g>
	<polygon points="-1317.92,44.24 -1317.92,34.81 -1335.61,34.81 -1335.61,44.24 -1345.65,44.24 -1345.65,18.24 -1335.61,18.24 
		-1335.61,28.72 -1317.92,28.72 -1317.92,18.24 -1307.67,18.24 -1307.67,44.24 	"/>
	<g>
		<defs>
			<rect id="SVGID_7_" x="-1345.65" y="18.23" width="155.9" height="37.23"/>
		</defs>
		<clipPath id="SVGID_8_">
			<use xlink:href="#SVGID_7_"  style="overflow:visible;"/>
		</clipPath>
		<path class="st6" d="M-1275.18,24.53L-1275.18,24.53h-28.25v-6.4h31.25c1.86,0,3.52,0.52,4.86,1.89c1.35,1.36,1.97,2.94,1.97,4.93
			v12.38c0,1.89-0.62,3.57-1.97,4.93c-1.35,1.26-3,1.99-4.86,1.99h-31.25V28.72h9.73l0.1,9.02h18.42V24.53z"/>
		<path class="st6" d="M-1215.26,20.02L-1215.26,20.02c1.35,1.36,1.97,2.94,1.97,4.93v19.3h-9.83V24.53h-9.31v19.72h-9.73V24.53
			h-9.31v19.72h-9.83V18.13h41.29C-1218.16,18.13-1216.61,18.66-1215.26,20.02"/>
		<polygon class="st6" points="-1199.01,34.81 -1199.01,34.81 -1199.01,44.25 -1209.16,44.25 -1209.16,18.13 -1199.01,18.13 
			-1199.01,28.72 -1199.12,32.29 		"/>
		<polygon class="st6" points="-1345.03,50.75 -1345.03,50.75 -1344.31,50.75 -1344.31,52.53 -1342.24,52.53 -1342.24,50.75 
			-1341.41,50.75 -1341.41,55.26 -1342.24,55.26 -1342.24,53.26 -1344.31,53.26 -1344.31,55.26 -1345.03,55.26 		"/>
		<polygon class="st6" points="-1339.96,50.75 -1339.96,50.75 -1339.23,50.75 -1339.23,55.26 -1339.96,55.26 		"/>
		<path class="st6" d="M-1333.85,55.26L-1333.85,55.26h-0.52l-0.1-0.52c-0.41,0.52-0.83,0.63-1.35,0.63c-1.35,0-2.17-1.05-2.17-2.41
			c0-1.26,0.83-2.41,2.17-2.41c1.03,0,1.86,0.63,1.97,1.57h-0.83c0-0.52-0.52-0.84-1.14-0.84c-0.93,0-1.35,0.84-1.35,1.68
			c0,0.94,0.41,1.78,1.35,1.78c0.83,0,1.24-0.42,1.24-1.26h-1.14v-0.63h1.86V55.26z"/>
		<polygon class="st6" points="-1332.51,50.75 -1332.51,50.75 -1331.78,50.75 -1331.78,52.53 -1329.71,52.53 -1329.71,50.75 
			-1328.89,50.75 -1328.89,55.26 -1329.71,55.26 -1329.71,53.26 -1331.78,53.26 -1331.78,55.26 -1332.51,55.26 		"/>
		<path class="st6" d="M-1325.26,50.75L-1325.26,50.75h1.86c1.45,0,2.07,0.94,2.07,2.31c0,1.26-0.62,2.2-2.07,2.2h-1.86V50.75z
			 M-1324.44,54.63L-1324.44,54.63h0.72c1.24,0,1.55-0.73,1.55-1.57c0-0.94-0.31-1.68-1.55-1.68h-0.72V54.63z"/>
		<polygon class="st6" points="-1320.19,50.75 -1320.19,50.75 -1316.99,50.75 -1316.99,51.38 -1319.47,51.38 -1319.47,52.64 
			-1317.09,52.64 -1317.09,53.26 -1319.47,53.26 -1319.47,54.63 -1316.88,54.63 -1316.88,55.26 -1320.19,55.26 		"/>
		<polygon class="st6" points="-1315.74,50.75 -1315.74,50.75 -1312.64,50.75 -1312.64,51.38 -1315.02,51.38 -1315.02,52.64 
			-1312.95,52.64 -1312.95,53.26 -1315.02,53.26 -1315.02,55.26 -1315.74,55.26 		"/>
		<polygon class="st6" points="-1311.5,50.75 -1311.5,50.75 -1310.78,50.75 -1310.78,55.26 -1311.5,55.26 		"/>
		<polygon class="st6" points="-1309.33,50.75 -1309.33,50.75 -1308.5,50.75 -1306.43,54.1 -1306.43,50.75 -1305.71,50.75 
			-1305.71,55.26 -1306.53,55.26 -1308.6,51.9 -1308.6,55.26 -1309.33,55.26 		"/>
		<polygon class="st6" points="-1304.26,50.75 -1304.26,50.75 -1303.53,50.75 -1303.53,55.26 -1304.26,55.26 		"/>
		<polygon class="st6" points="-1302.5,50.75 -1302.5,50.75 -1298.88,50.75 -1298.88,51.38 -1300.33,51.38 -1300.33,55.26 
			-1301.05,55.26 -1301.05,51.38 -1302.5,51.38 		"/>
		<polygon class="st6" points="-1297.84,50.75 -1297.84,50.75 -1297.01,50.75 -1297.01,55.26 -1297.84,55.26 		"/>
		<path class="st6" d="M-1291.53,53.06L-1291.53,53.06c0,1.26-0.83,2.41-2.17,2.41c-1.35,0-2.17-1.15-2.17-2.41
			c0-1.36,0.83-2.52,2.17-2.52C-1292.36,50.54-1291.53,51.69-1291.53,53.06 M-1295.05,53.06L-1295.05,53.06
			c0,0.84,0.41,1.68,1.35,1.68c0.93,0,1.35-0.84,1.35-1.68c0-0.94-0.41-1.78-1.35-1.78C-1294.63,51.27-1295.05,52.11-1295.05,53.06"
			/>
		<polygon class="st6" points="-1290.39,50.75 -1290.39,50.75 -1289.56,50.75 -1287.49,54.1 -1287.49,50.75 -1286.67,50.75 
			-1286.67,55.26 -1287.6,55.26 -1289.67,51.9 -1289.67,55.26 -1290.39,55.26 		"/>
		<polygon class="st6" points="-1283.15,50.75 -1283.15,50.75 -1282.01,50.75 -1280.77,54.31 -1279.53,50.75 -1278.39,50.75 
			-1278.39,55.26 -1279.21,55.26 -1279.21,51.8 -1280.46,55.26 -1281.08,55.26 -1282.32,51.8 -1282.32,55.26 -1283.15,55.26 		"/>
		<path class="st6" d="M-1277.04,50.75L-1277.04,50.75h0.83v2.62c0,0.63,0,1.36,1.03,1.36c1.03,0,1.03-0.73,1.03-1.36v-2.62h0.83
			v2.94c0,1.15-0.72,1.68-1.86,1.68c-1.14,0-1.86-0.52-1.86-1.68V50.75z"/>
		<polygon class="st6" points="-1271.97,50.75 -1271.97,50.75 -1271.14,50.75 -1271.14,54.63 -1268.87,54.63 -1268.87,55.26 
			-1271.97,55.26 		"/>
		<polygon class="st6" points="-1268.87,50.75 -1268.87,50.75 -1265.24,50.75 -1265.24,51.38 -1266.69,51.38 -1266.69,55.26 
			-1267.42,55.26 -1267.42,51.38 -1268.87,51.38 		"/>
		<polygon class="st6" points="-1264.21,50.75 -1264.21,50.75 -1263.49,50.75 -1263.49,55.26 -1264.21,55.26 		"/>
		<polygon class="st6" points="-1262.04,50.75 -1262.04,50.75 -1260.9,50.75 -1259.66,54.31 -1258.41,50.75 -1257.28,50.75 
			-1257.28,55.26 -1258.1,55.26 -1258.1,51.8 -1259.35,55.26 -1259.97,55.26 -1261.21,51.8 -1261.31,51.8 -1261.31,55.26 
			-1262.04,55.26 		"/>
		<polygon class="st6" points="-1255.93,50.75 -1255.93,50.75 -1252.62,50.75 -1252.62,51.38 -1255.1,51.38 -1255.1,52.64 
			-1252.83,52.64 -1252.83,53.27 -1255.1,53.27 -1255.1,54.63 -1252.62,54.63 -1252.62,55.26 -1255.93,55.26 		"/>
		<path class="st6" d="M-1251.48,50.75L-1251.48,50.75h1.86c1.45,0,2.07,0.94,2.07,2.31c0,1.26-0.62,2.2-2.07,2.2h-1.86V50.75z
			 M-1250.65,54.63L-1250.65,54.63h0.72c1.35,0,1.55-0.73,1.55-1.57c0-0.94-0.21-1.68-1.55-1.68h-0.72V54.63z"/>
		<polygon class="st6" points="-1246.41,50.75 -1246.41,50.75 -1245.58,50.75 -1245.58,55.26 -1246.41,55.26 		"/>
		<path class="st6" d="M-1243,50.75L-1243,50.75h0.83l1.76,4.51h-0.83l-0.41-1.15h-1.86l-0.41,1.15h-0.83L-1243,50.75z
			 M-1243.31,53.48L-1243.31,53.48h1.45l-0.72-1.99L-1243.31,53.48z"/>
		<polygon class="st6" points="-1237.3,50.75 -1237.3,50.75 -1236.48,50.75 -1236.48,55.26 -1237.3,55.26 		"/>
		<polygon class="st6" points="-1235.13,50.75 -1235.13,50.75 -1234.3,50.75 -1232.23,54.11 -1232.23,50.75 -1231.41,50.75 
			-1231.41,55.26 -1232.23,55.26 -1234.3,51.9 -1234.41,51.9 -1234.41,55.26 -1235.13,55.26 		"/>
		<polygon class="st6" points="-1230.47,50.75 -1230.47,50.75 -1226.85,50.75 -1226.85,51.38 -1228.2,51.38 -1228.2,55.26 
			-1229.03,55.26 -1229.03,51.38 -1230.47,51.38 		"/>
		<polygon class="st6" points="-1225.82,50.75 -1225.82,50.75 -1222.61,50.75 -1222.61,51.38 -1224.99,51.38 -1224.99,52.64 
			-1222.71,52.64 -1222.71,53.27 -1224.99,53.27 -1224.99,54.63 -1222.51,54.63 -1222.51,55.26 -1225.82,55.26 		"/>
		<path class="st6" d="M-1221.37,50.75L-1221.37,50.75h2.17c0.93,0,1.45,0.42,1.45,1.15c0,0.94-0.52,1.15-0.72,1.15v0.1
			c0.31,0,0.72,0.21,0.72,0.94c0,0.52,0,1.05,0.21,1.15h-0.83c-0.1-0.1-0.1-0.42-0.1-0.63c0-0.84-0.21-1.26-0.93-1.26h-1.14v1.89
			h-0.83V50.75z M-1220.54,52.85L-1220.54,52.85h1.24c0.52,0,0.83-0.31,0.83-0.73c0-0.63-0.41-0.73-0.83-0.73h-1.24V52.85z"/>
		<polygon class="st6" points="-1216.4,50.75 -1216.4,50.75 -1213.3,50.75 -1213.3,51.38 -1215.68,51.38 -1215.68,52.64 
			-1213.61,52.64 -1213.61,53.27 -1215.68,53.27 -1215.68,55.26 -1216.4,55.26 		"/>
		<path class="st6" d="M-1211.33,50.75L-1211.33,50.75h0.83l1.76,4.51h-0.83l-0.52-1.15h-1.76l-0.41,1.15h-0.83L-1211.33,50.75z
			 M-1211.64,53.48L-1211.64,53.48h1.35l-0.62-1.99L-1211.64,53.48z"/>
		<path class="st6" d="M-1204.81,52.11L-1204.81,52.11c-0.1-0.52-0.52-0.84-1.14-0.84c-0.93,0-1.35,0.84-1.35,1.78
			c0,0.84,0.41,1.68,1.35,1.68c0.72,0,1.14-0.52,1.14-1.15h0.83c-0.1,1.05-0.83,1.78-1.97,1.78c-1.35,0-2.17-1.05-2.17-2.31
			c0-1.36,0.83-2.52,2.17-2.52c1.03,0.1,1.86,0.63,1.97,1.57H-1204.81z"/>
		<polygon class="st6" points="-1202.84,50.75 -1202.84,50.75 -1199.53,50.75 -1199.53,51.38 -1202.02,51.38 -1202.02,52.64 
			-1199.74,52.64 -1199.74,53.27 -1202.02,53.27 -1202.02,54.63 -1199.53,54.63 -1199.53,55.26 -1202.84,55.26 		"/>
		<polygon class="st6" points="-1326.3,53.37 -1326.3,53.37 -1327.85,53.37 -1327.85,52.95 -1326.3,52.95 		"/>
		<path class="st6" d="M-1192.5,17.71L-1192.5,17.71c1.76,0,3.21,1.26,3.21,3.15c0,1.78-1.45,3.25-3.31,3.25
			c-1.76,0-3.31-1.47-3.31-3.25c0-1.89,1.55-3.15,3.31-3.15H-1192.5z M-1192.6,18.24L-1192.6,18.24c-1.35,0-2.48,1.15-2.48,2.62
			c0,1.47,1.14,2.62,2.59,2.62c1.35,0,2.38-1.15,2.38-2.62C-1190.12,19.39-1191.15,18.24-1192.6,18.24 M-1193.12,22.54
			L-1193.12,22.54h-0.72v-3.25c0.31-0.1,0.72-0.1,1.24-0.1c0.62,0,0.93,0.1,1.14,0.21c0.21,0.21,0.31,0.42,0.31,0.73
			c0,0.42-0.31,0.63-0.62,0.73v0.1c0.31,0.1,0.41,0.31,0.52,0.73c0.1,0.52,0.21,0.73,0.21,0.84h-0.72c-0.1-0.1-0.21-0.42-0.31-0.84
			c0-0.31-0.21-0.42-0.62-0.42h-0.41V22.54z M-1193.01,20.65L-1193.01,20.65h0.31c0.41,0,0.72-0.1,0.72-0.42s-0.21-0.52-0.62-0.52
			c-0.21,0-0.41,0-0.41,0.1V20.65z"/>
	</g>
</g>
<g>
	<g>
		<defs>
			<rect id="SVGID_9_" x="-1539.19" y="15.46" width="155.91" height="42.77"/>
		</defs>
		<clipPath id="SVGID_10_">
			<use xlink:href="#SVGID_9_"  style="overflow:visible;"/>
		</clipPath>
		<path class="st7" d="M-1383.86,48.05v-22.4c0-5.3-4.32-9.62-9.62-9.62h-135.73c-5.3,0-9.62,4.31-9.62,9.62v22.4
			c0,5.3,4.31,9.62,9.62,9.62h135.73C-1388.17,57.66-1383.86,53.35-1383.86,48.05"/>
		<path class="st8" d="M-1529,58.24c-5.62,0-10.19-4.57-10.19-10.19v-22.4c0-5.62,4.57-10.19,10.19-10.19h135.53
			c5.62,0,10.19,4.57,10.19,10.19v22.4c0,5.62-4.57,10.19-10.19,10.19H-1529z M-1529,16.04c-5.3,0-9.62,4.31-9.62,9.62v22.4
			c0,5.3,4.31,9.62,9.62,9.62h127.28h8.24c5.3,0,9.62-4.31,9.62-9.62v-22.4c0-5.3-4.32-9.62-9.62-9.62H-1529z"/>
		<path class="st9" d="M-1515.58,20.56c-8.92,0-16.12,7.35-16.12,16.29c0,8.94,7.2,16.29,16.12,16.29c8.92,0,16.12-7.35,16.12-16.29
			C-1499.46,27.91-1506.66,20.56-1515.58,20.56 M-1518.11,52.93V49.7c0-1.15-0.7-2.17-1.75-2.62c-3.95-1.69-6.71-5.66-6.71-10.23
			c0-6.1,4.91-11.11,10.99-11.11c6.08,0,10.99,5.01,10.99,11.11C-1504.59,44.04-1510.1,50.84-1518.11,52.93"/>
		<path class="st10" d="M-1447.58,42.24v-14.8h1.14v5.82c0.59-0.47,1.17-0.81,1.75-1.04c0.58-0.23,1.18-0.34,1.79-0.34
			c1.29,0,2.31,0.46,3.06,1.39c0.75,0.93,1.12,2.2,1.12,3.81c0,1.65-0.39,2.96-1.18,3.93c-0.79,0.97-1.85,1.45-3.18,1.45
			c-1.23,0-2.35-0.46-3.38-1.38l-0.12,1.16H-1447.58z M-1443.12,32.92c-0.57,0-1.13,0.1-1.66,0.31c-0.53,0.21-1.09,0.53-1.66,0.97
			v5.86c0.55,0.48,1.08,0.83,1.6,1.04c0.52,0.21,1.07,0.32,1.64,0.32c1.09,0,1.92-0.36,2.47-1.07c0.55-0.71,0.83-1.78,0.83-3.19
			C-1439.9,34.33-1440.98,32.92-1443.12,32.92"/>
		<path class="st10" d="M-1429.66,42.24l-0.12-1.1c-1.27,0.93-2.58,1.4-3.94,1.4c-0.96,0-1.7-0.26-2.21-0.78
			c-0.51-0.52-0.77-1.28-0.77-2.28v-7.3h1.14V39c0,0.88,0.17,1.52,0.5,1.91c0.33,0.39,0.86,0.59,1.58,0.59c0.65,0,1.27-0.1,1.84-0.3
			c0.57-0.2,1.19-0.53,1.84-0.98v-8.04h1.14v10.06H-1429.66z"/>
		<path class="st10" d="M-1425.38,30.02c-0.27,0-0.48-0.08-0.63-0.24c-0.15-0.16-0.23-0.37-0.23-0.64c0-0.27,0.08-0.48,0.23-0.64
			c0.15-0.16,0.36-0.24,0.63-0.24c0.27,0,0.48,0.08,0.63,0.24c0.15,0.16,0.23,0.37,0.23,0.64c0,0.27-0.08,0.48-0.23,0.64
			C-1424.91,29.94-1425.11,30.02-1425.38,30.02 M-1425.96,32.18h1.14v10.06h-1.14V32.18z"/>
		<path class="st10" d="M-1419.4,42.16c-0.35,0.09-0.69,0.14-1.02,0.14c-0.53,0-0.95-0.16-1.25-0.47c-0.3-0.31-0.45-0.75-0.45-1.31
			V27.44h1.14V40.5c0,0.29,0.06,0.5,0.17,0.62c0.11,0.12,0.32,0.18,0.61,0.18c0.21,0,0.48-0.02,0.8-0.06V42.16z"/>
		<path class="st10" d="M-1412.5,42.02c-0.56,0.23-1.23,0.34-2.02,0.34c-0.79,0-1.39-0.21-1.8-0.63c-0.41-0.42-0.62-1.03-0.62-1.83
			v-6.72h-1.88v-0.8l1.92-0.18l0.16-2.94h0.94v2.92h3.2v1h-3.2v6.66c0,0.55,0.12,0.93,0.35,1.16c0.23,0.23,0.62,0.34,1.17,0.34
			c0.55,0,1.14-0.08,1.78-0.24V42.02z"/>
		<rect x="-1411.84" y="36.52" class="st10" width="5.58" height="1.06"/>
		<path class="st10" d="M-1403.54,30.02c-0.27,0-0.48-0.08-0.63-0.24c-0.15-0.16-0.23-0.37-0.23-0.64c0-0.27,0.08-0.48,0.23-0.64
			c0.15-0.16,0.36-0.24,0.63-0.24c0.27,0,0.48,0.08,0.63,0.24c0.15,0.16,0.23,0.37,0.23,0.64c0,0.27-0.08,0.48-0.23,0.64
			C-1403.06,29.94-1403.27,30.02-1403.54,30.02 M-1404.12,32.18h1.14v10.06h-1.14V32.18z"/>
		<path class="st10" d="M-1393.14,42.24V35.4c0-0.87-0.17-1.5-0.5-1.89c-0.33-0.39-0.87-0.59-1.6-0.59c-1.33,0-2.63,0.43-3.9,1.28
			v8.04h-1.14V32.18h1l0.12,1.16c0.65-0.47,1.34-0.83,2.06-1.08c0.72-0.25,1.42-0.38,2.1-0.38c0.97,0,1.72,0.26,2.23,0.77
			c0.51,0.51,0.77,1.27,0.77,2.27v7.32H-1393.14z"/>
		<path class="st10" d="M-1489.48,31.97c2.27,0,3.4,0.98,3.4,2.93v6.96c0,0.2-0.1,0.3-0.3,0.3h-0.41c-0.2,0-0.3-0.1-0.31-0.3
			l-0.08-0.85c-1.13,0.91-2.31,1.36-3.54,1.36c-0.91,0-1.62-0.26-2.16-0.78c-0.53-0.52-0.8-1.21-0.8-2.08
			c0-0.96,0.33-1.71,0.97-2.26c0.65-0.55,1.54-0.83,2.69-0.83c0.42,0,0.88,0.04,1.38,0.12c0.5,0.08,0.98,0.19,1.44,0.34v-1.65
			c0-0.8-0.19-1.37-0.57-1.72c-0.38-0.35-1.01-0.52-1.89-0.52c-0.81,0-1.67,0.13-2.58,0.39c-0.14,0.04-0.26,0.08-0.34,0.11
			c-0.09,0.03-0.15,0.05-0.21,0.05c-0.16,0-0.24-0.09-0.24-0.26v-0.32c0-0.2,0.08-0.33,0.26-0.39c0.5-0.2,1.03-0.35,1.6-0.45
			C-1490.59,32.02-1490.03,31.97-1489.48,31.97 M-1489.76,37.38c-1.84,0-2.75,0.71-2.75,2.12c0,1.23,0.65,1.85,1.95,1.85
			c0.5,0,1.04-0.1,1.61-0.29c0.58-0.2,1.16-0.48,1.75-0.87v-2.46C-1488.09,37.5-1488.94,37.38-1489.76,37.38"/>
		<path class="st10" d="M-1483.48,27.9c0-0.2,0.1-0.3,0.3-0.3h0.53c0.2,0,0.3,0.1,0.3,0.3v12.55c0,0.29,0.06,0.49,0.17,0.61
			c0.11,0.12,0.31,0.18,0.6,0.18c0.08,0,0.17-0.01,0.27-0.02c0.1-0.01,0.18-0.02,0.25-0.02c0.18,0,0.28,0.09,0.28,0.28v0.37
			c0,0.16-0.09,0.26-0.26,0.3c-0.08,0.03-0.19,0.05-0.34,0.06c-0.15,0.01-0.29,0.02-0.4,0.02c-0.53,0-0.93-0.15-1.23-0.46
			c-0.3-0.31-0.44-0.74-0.44-1.29V27.9z"/>
		<path class="st10" d="M-1472.6,41.1c0.17-0.05,0.29-0.1,0.37-0.13c0.08-0.03,0.15-0.05,0.22-0.05c0.16,0,0.24,0.09,0.24,0.26v0.28
			c0,0.21-0.07,0.35-0.22,0.41c-0.95,0.39-1.95,0.59-3.01,0.59c-1.51,0-2.66-0.44-3.45-1.31c-0.79-0.87-1.19-2.15-1.19-3.83
			c0-0.83,0.1-1.57,0.31-2.23c0.21-0.66,0.51-1.23,0.91-1.69c0.4-0.46,0.89-0.82,1.47-1.06c0.58-0.24,1.23-0.36,1.95-0.36
			c1.14,0,2.02,0.26,2.65,0.79c0.62,0.52,0.93,1.26,0.93,2.2c0,0.93-0.33,1.62-0.99,2.06c-0.66,0.44-1.69,0.66-3.08,0.66
			c-0.5,0-1-0.03-1.5-0.09c-0.51-0.06-1.01-0.16-1.51-0.31c0,1.42,0.3,2.46,0.89,3.14c0.6,0.68,1.49,1.01,2.69,1.01
			C-1474.15,41.43-1473.38,41.32-1472.6,41.1 M-1475.1,32.97c-0.98,0-1.76,0.29-2.33,0.87c-0.57,0.58-0.91,1.42-1.03,2.54
			c0.51,0.13,1.02,0.23,1.52,0.29c0.5,0.07,1.01,0.1,1.52,0.1c0.98,0,1.71-0.14,2.16-0.43c0.46-0.29,0.69-0.75,0.69-1.38
			C-1472.56,33.64-1473.41,32.97-1475.1,32.97"/>
		<path class="st10" d="M-1466.11,37.79l-2.85,4.15c-0.1,0.14-0.24,0.22-0.41,0.22h-0.55c-0.17,0-0.26-0.07-0.26-0.22
			c0-0.05,0.05-0.14,0.14-0.26l3.36-4.68l-3.07-4.29c-0.08-0.12-0.12-0.2-0.12-0.24c0-0.14,0.08-0.22,0.26-0.22h0.61
			c0.17,0,0.31,0.07,0.41,0.22l2.58,3.66l2.58-3.66c0.11-0.14,0.24-0.22,0.39-0.22h0.53c0.17,0,0.26,0.07,0.26,0.22
			c0,0.05-0.04,0.14-0.12,0.26l-3.03,4.19l3.36,4.76c0.08,0.12,0.12,0.2,0.12,0.26c0,0.14-0.09,0.22-0.26,0.22h-0.61
			c-0.16,0-0.29-0.07-0.39-0.22L-1466.11,37.79z"/>
		<path class="st10" d="M-1456.72,31.97c2.27,0,3.4,0.98,3.4,2.93v6.96c0,0.2-0.1,0.3-0.29,0.3h-0.41c-0.2,0-0.3-0.1-0.32-0.3
			l-0.08-0.85c-1.13,0.91-2.31,1.36-3.54,1.36c-0.91,0-1.62-0.26-2.15-0.78c-0.53-0.52-0.8-1.21-0.8-2.08
			c0-0.96,0.32-1.71,0.97-2.26c0.65-0.55,1.54-0.83,2.69-0.83c0.42,0,0.88,0.04,1.38,0.12c0.5,0.08,0.98,0.19,1.44,0.34v-1.65
			c0-0.8-0.19-1.37-0.57-1.72c-0.38-0.35-1.01-0.52-1.89-0.52c-0.81,0-1.67,0.13-2.58,0.39c-0.14,0.04-0.26,0.08-0.34,0.11
			c-0.09,0.03-0.15,0.05-0.21,0.05c-0.16,0-0.24-0.09-0.24-0.26v-0.32c0-0.2,0.08-0.33,0.26-0.39c0.5-0.2,1.03-0.35,1.6-0.45
			C-1457.83,32.02-1457.27,31.97-1456.72,31.97 M-1456.99,37.38c-1.84,0-2.75,0.71-2.75,2.12c0,1.23,0.65,1.85,1.95,1.85
			c0.5,0,1.04-0.1,1.61-0.29c0.58-0.2,1.16-0.48,1.75-0.87v-2.46C-1455.33,37.5-1456.18,37.38-1456.99,37.38"/>
	</g>
</g>
<g>
	<g>
		<path d="M-545.65,60.57h-108.47c-13.08,0-23.72-10.64-23.72-23.72c0-13.08,10.64-23.71,23.72-23.71h108.47
			c13.08,0,23.72,10.64,23.72,23.71C-521.93,49.93-532.57,60.57-545.65,60.57"/>
		<path class="st11" d="M-654.12,14.06c-12.57,0-22.79,10.22-22.79,22.78c0,12.57,10.22,22.79,22.79,22.79h108.47
			c12.56,0,22.79-10.22,22.79-22.79c0-12.56-10.22-22.78-22.79-22.78H-654.12z"/>
	</g>
	<g>
		<path d="M-543.07,29.35c0-0.31-0.18-0.59-0.46-0.72c-0.28-0.13-0.6-0.09-0.85,0.1c-1.25,1.02-4.94,3.73-6.93,4.01
			c-0.01,0-0.02,0-0.02,0c-0.79,0.14-2.79,0.43-2.81,0.44c-0.39,0.06-0.68,0.39-0.68,0.79v2.81c0,0.01,0,0.03,0,0.04
			c0,0.01,0,0.02,0,0.04v2.81c0,0.4,0.29,0.73,0.68,0.79c0.02,0,2.02,0.29,2.81,0.43c0.01,0,0.02,0,0.02,0
			c1.99,0.28,5.68,2.99,6.93,4.01c0.15,0.12,0.33,0.18,0.5,0.18c0.12,0,0.23-0.03,0.34-0.08c0.28-0.13,0.46-0.41,0.46-0.72v-7.43
			c0-0.01,0-0.03,0-0.04c0-0.01,0-0.03,0-0.04V29.35z"/>
		<path d="M-540.87,40.58c-0.17,0-0.34-0.04-0.5-0.13c-0.48-0.28-0.65-0.89-0.38-1.37c0.39-0.68,0.59-1.44,0.59-2.22
			c0-0.79-0.21-1.57-0.6-2.25c-0.28-0.48-0.11-1.1,0.37-1.38c0.48-0.28,1.1-0.11,1.38,0.37c0.57,0.98,0.87,2.11,0.87,3.25
			c0,1.13-0.3,2.25-0.85,3.22C-540.18,40.4-540.52,40.58-540.87,40.58"/>
		<path d="M-537.86,42.8c-0.19,0-0.38-0.05-0.54-0.16c-0.47-0.3-0.6-0.92-0.31-1.39c0.83-1.31,1.27-2.84,1.27-4.4
			c0-1.58-0.45-3.12-1.31-4.45c-0.3-0.47-0.16-1.09,0.3-1.39c0.47-0.3,1.09-0.16,1.39,0.3c1.07,1.65,1.63,3.57,1.63,5.54
			c0,1.96-0.55,3.85-1.59,5.48C-537.21,42.63-537.53,42.8-537.86,42.8"/>
		<path d="M-534.86,45.01c-0.19,0-0.38-0.05-0.55-0.17c-0.47-0.31-0.59-0.93-0.28-1.39c1.3-1.96,1.99-4.24,1.99-6.6
			c0-2.39-0.71-4.7-2.04-6.67c-0.31-0.46-0.19-1.09,0.27-1.4c0.46-0.31,1.09-0.19,1.4,0.27c1.56,2.31,2.38,5,2.38,7.8
			c0,2.76-0.8,5.42-2.32,7.71C-534.22,44.86-534.53,45.01-534.86,45.01"/>
		<path d="M-545.65,50.8c-7.69,0-13.95-6.26-13.95-13.95c0-7.69,6.26-13.95,13.95-13.95c3.43,0,6.74,1.26,9.3,3.55
			c0.42,0.37,0.45,1.01,0.08,1.42c-0.37,0.42-1.01,0.45-1.43,0.08c-2.19-1.96-5.01-3.03-7.95-3.03c-6.58,0-11.93,5.36-11.93,11.93
			c0,6.58,5.36,11.94,11.93,11.94c2.94,0,5.76-1.08,7.95-3.03c0.42-0.37,1.05-0.34,1.43,0.08c0.37,0.42,0.34,1.05-0.08,1.42
			C-538.91,49.54-542.21,50.8-545.65,50.8"/>
		<rect x="-569.25" y="20.57" width="0.93" height="32.55"/>
		<path d="M-630.11,35.78c-2.41-0.57-2.84-0.98-2.84-1.82c0-0.8,0.75-1.34,1.87-1.34c1.09,0,2.16,0.41,3.29,1.26
			c0.03,0.02,0.08,0.03,0.12,0.02c0.04,0,0.08-0.02,0.1-0.06l1.18-1.65c0.05-0.07,0.03-0.16-0.03-0.22c-1.34-1.08-2.85-1.6-4.63-1.6
			c-2.6,0-4.42,1.56-4.42,3.79c0,2.4,1.57,3.24,4.28,3.9c2.31,0.53,2.7,0.97,2.7,1.77c0,0.88-0.79,1.43-2.06,1.43
			c-1.41,0-2.55-0.48-3.84-1.58c-0.03-0.03-0.08-0.04-0.11-0.04c-0.04,0.01-0.08,0.02-0.11,0.06l-1.32,1.57
			c-0.06,0.06-0.05,0.16,0.01,0.22c1.5,1.33,3.33,2.03,5.31,2.03c2.8,0,4.62-1.53,4.62-3.9C-625.98,37.6-627.18,36.49-630.11,35.78"
			/>
		<path d="M-619.64,33.4c-1.21,0-2.21,0.48-3.03,1.46v-1.11c0-0.09-0.07-0.15-0.15-0.15h-2.16c-0.09,0-0.16,0.07-0.16,0.15v12.26
			c0,0.09,0.08,0.16,0.16,0.16h2.16c0.09,0,0.15-0.07,0.15-0.16v-3.87c0.82,0.92,1.82,1.37,3.03,1.37c2.26,0,4.54-1.74,4.54-5.06
			C-615.1,35.14-617.38,33.4-619.64,33.4 M-617.61,38.46c0,1.69-1.04,2.88-2.53,2.88c-1.48,0-2.59-1.24-2.59-2.88
			c0-1.64,1.11-2.87,2.59-2.87C-618.67,35.59-617.61,36.8-617.61,38.46"/>
		<path d="M-609.24,33.4c-2.9,0-5.18,2.24-5.18,5.1c0,2.83,2.26,5.04,5.15,5.04c2.92,0,5.2-2.23,5.2-5.08
			C-604.08,35.63-606.34,33.4-609.24,33.4 M-609.24,41.35c-1.54,0-2.71-1.25-2.71-2.89c0-1.65,1.12-2.85,2.67-2.85
			c1.56,0,2.73,1.24,2.73,2.89C-606.55,40.15-607.68,41.35-609.24,41.35"/>
		<path d="M-597.87,33.6h-2.37v-2.43c0-0.09-0.07-0.16-0.16-0.16h-2.15c-0.09,0-0.16,0.07-0.16,0.16v2.43h-1.04
			c-0.09,0-0.15,0.07-0.15,0.15v1.86c0,0.09,0.07,0.15,0.15,0.15h1.04v4.8c0,1.94,0.97,2.92,2.87,2.92c0.77,0,1.41-0.16,2.02-0.5
			c0.05-0.03,0.08-0.08,0.08-0.14v-1.77c0-0.05-0.03-0.1-0.08-0.13c-0.05-0.03-0.11-0.03-0.15-0.01c-0.42,0.21-0.82,0.31-1.27,0.31
			c-0.69,0-1-0.32-1-1.02v-4.46h2.37c0.09,0,0.15-0.07,0.15-0.15v-1.86C-597.71,33.67-597.78,33.6-597.87,33.6"/>
		<path d="M-589.6,33.61v-0.3c0-0.88,0.34-1.27,1.09-1.27c0.45,0,0.81,0.09,1.21,0.23c0.05,0.01,0.1,0,0.14-0.02
			c0.04-0.02,0.06-0.08,0.06-0.13V30.3c0-0.07-0.04-0.13-0.11-0.15c-0.43-0.13-0.97-0.26-1.79-0.26c-1.99,0-3.05,1.12-3.05,3.24
			v0.46h-1.03c-0.09,0-0.16,0.07-0.16,0.15v1.87c0,0.09,0.07,0.15,0.16,0.15h1.03v7.4c0,0.09,0.08,0.16,0.16,0.16h2.16
			c0.09,0,0.15-0.07,0.15-0.16v-7.4h2.02l3.08,7.4c-0.35,0.77-0.69,0.93-1.16,0.93c-0.38,0-0.78-0.11-1.19-0.34
			c-0.04-0.02-0.08-0.03-0.13-0.01c-0.04,0.01-0.08,0.04-0.1,0.09l-0.73,1.6c-0.04,0.07-0.01,0.16,0.07,0.2
			c0.76,0.42,1.45,0.59,2.3,0.59c1.59,0,2.47-0.74,3.25-2.74l3.74-9.67c0.02-0.05,0.01-0.1-0.01-0.15
			c-0.03-0.04-0.08-0.07-0.13-0.07h-2.25c-0.06,0-0.13,0.04-0.15,0.11l-2.3,6.57l-2.52-6.57c-0.02-0.06-0.08-0.1-0.15-0.1H-589.6z"
			/>
		<path d="M-594.4,33.6h-2.16c-0.09,0-0.16,0.07-0.16,0.15v9.41c0,0.09,0.07,0.16,0.16,0.16h2.16c0.09,0,0.16-0.07,0.16-0.16v-9.41
			C-594.24,33.67-594.31,33.6-594.4,33.6"/>
		<path d="M-595.46,29.31c-0.86,0-1.55,0.69-1.55,1.55s0.69,1.55,1.55,1.55c0.85,0,1.55-0.69,1.55-1.55S-594.61,29.31-595.46,29.31"
			/>
		<path d="M-576.56,36.63c-0.86,0-1.52-0.69-1.52-1.52c0-0.83,0.68-1.52,1.53-1.52c0.85,0,1.52,0.68,1.52,1.52
			C-575.04,35.93-575.71,36.63-576.56,36.63 M-576.56,33.73c-0.78,0-1.36,0.62-1.36,1.37c0,0.76,0.58,1.36,1.36,1.36
			c0.77,0,1.36-0.62,1.36-1.37C-575.2,34.34-575.78,33.73-576.56,33.73 M-576.22,35.26l0.43,0.6h-0.36l-0.38-0.55h-0.33v0.55h-0.3
			v-1.59h0.71c0.37,0,0.62,0.19,0.62,0.51C-575.85,35.03-576.01,35.19-576.22,35.26 M-576.48,34.54h-0.39v0.5h0.39
			c0.2,0,0.32-0.1,0.32-0.25C-576.16,34.62-576.28,34.54-576.48,34.54"/>
		<g>
			<path d="M-662.78,36.69c0.01-0.06,0.04-0.13,0.06-0.19C-662.74,36.56-662.76,36.62-662.78,36.69z"/>
			<path d="M-662.39,36.06c0.1-0.08,0.21-0.15,0.35-0.19C-662.18,35.91-662.29,35.98-662.39,36.06z"/>
			<path d="M-662.64,36.35c0.04-0.07,0.09-0.13,0.15-0.19C-662.55,36.21-662.6,36.28-662.64,36.35z"/>
			<path d="M-647.69,42.2c-0.01-0.03-0.03-0.06-0.05-0.1C-647.72,42.13-647.71,42.17-647.69,42.2z"/>
			<path d="M-661.56,40.27c-0.11,0.02-0.2,0.07-0.29,0.13C-661.76,40.34-661.67,40.3-661.56,40.27z"/>
			<path d="M-661.93,40.47c-0.05,0.04-0.1,0.09-0.13,0.14C-662.03,40.56-661.98,40.52-661.93,40.47z"/>
			<path d="M-662.19,40.88c0.01-0.05,0.03-0.1,0.05-0.14C-662.16,40.78-662.18,40.83-662.19,40.88z"/>
			<path d="M-662.04,35.87c5.07-1.54,11.37-0.79,15.67,1.86C-650.68,35.08-656.97,34.33-662.04,35.87z"/>
			<path d="M-643.95,33.79c-0.04-0.13-0.1-0.26-0.18-0.38C-644.05,33.53-643.99,33.66-643.95,33.79z"/>
			<path d="M-654.12,22.9c-7.71,0-13.95,6.25-13.95,13.95c0,7.71,6.25,13.95,13.95,13.95c7.7,0,13.95-6.24,13.95-13.95
				C-640.17,29.15-646.42,22.9-654.12,22.9z M-647.72,43.02c-0.25,0.41-0.79,0.54-1.2,0.29c-3.27-2-7.4-2.45-12.25-1.34
				c-0.47,0.11-0.93-0.19-1.05-0.66c-0.02-0.1-0.01-0.19,0-0.28c0,0.02-0.01,0.03-0.01,0.05c0-0.03,0.01-0.05,0.01-0.08
				c0-0.02,0-0.03,0-0.05c0.03-0.36,0.28-0.69,0.66-0.77c5.32-1.21,9.87-0.69,13.55,1.56c0.21,0.13,0.32,0.35,0.37,0.58
				c0.01,0.04,0.02,0.08,0.03,0.11c0,0.02,0.02,0.05,0.01,0.08c0-0.02-0.01-0.03-0.01-0.05C-647.59,42.65-647.61,42.84-647.72,43.02
				z M-646.01,39.22c-0.32,0.51-0.98,0.67-1.49,0.36c-3.76-2.3-9.47-2.97-13.91-1.63c-0.57,0.18-1.18-0.15-1.36-0.72
				c-0.03-0.11-0.04-0.24-0.03-0.35c0,0.01-0.01,0.03-0.01,0.05c0-0.02,0.01-0.05,0.01-0.07c0-0.03,0-0.06,0.01-0.1
				c0.03-0.44,0.3-0.85,0.76-0.98c5.07-1.54,11.37-0.79,15.67,1.85c0.34,0.21,0.52,0.58,0.52,0.95c0-0.02-0.02-0.04-0.02-0.06
				C-645.85,38.75-645.88,39-646.01,39.22z M-644.08,34.81c-0.37,0.62-1.17,0.82-1.79,0.46c-4.5-2.67-11.91-2.92-16.21-1.62
				c-0.69,0.21-1.42-0.18-1.63-0.87c-0.04-0.14-0.04-0.28-0.04-0.42c0,0.02-0.01,0.05-0.01,0.07c0-0.04,0.01-0.06,0.01-0.1
				c0-0.04,0-0.08,0.01-0.13c0.04-0.52,0.37-0.98,0.9-1.15c4.93-1.49,13.12-1.21,18.3,1.87c0.41,0.25,0.63,0.68,0.63,1.12
				c0-0.05-0.02-0.11-0.03-0.16C-643.87,34.2-643.91,34.52-644.08,34.81z"/>
			<path d="M-663.25,31.38c0.12-0.09,0.26-0.18,0.42-0.22C-662.99,31.21-663.13,31.29-663.25,31.38z"/>
			<path d="M-645.98,38.19c-0.02-0.04-0.03-0.08-0.05-0.12C-646.01,38.11-646,38.15-645.98,38.19z"/>
			<path d="M-644.54,33.02c0.14,0.08,0.25,0.19,0.34,0.31C-644.28,33.21-644.4,33.11-644.54,33.02z"/>
			<path d="M-663.71,32.14c0.02-0.08,0.04-0.15,0.07-0.22C-663.67,31.99-663.69,32.06-663.71,32.14z"/>
			<path d="M-663.55,31.72c0.05-0.08,0.11-0.15,0.17-0.21C-663.44,31.57-663.5,31.64-663.55,31.72z"/>
		</g>
	</g>
</g>
<g>
	<path class="st12" d="M-264.88,15.09h-129.68c-0.51,0-1.01,0-1.51,0c-0.42,0.01-0.84,0.01-1.27,0.02
		c-0.91,0.02-1.84,0.08-2.76,0.24c-0.92,0.16-1.78,0.44-2.61,0.86c-0.83,0.42-1.58,0.97-2.23,1.62c-0.66,0.65-1.21,1.41-1.62,2.23
		c-0.43,0.83-0.7,1.7-0.86,2.62c-0.17,0.91-0.22,1.83-0.25,2.75c-0.01,0.42-0.01,0.85-0.02,1.27c0,0.5,0,1,0,1.5v17.28
		c0,0.51,0,1.01,0,1.5c0.01,0.43,0.01,0.84,0.02,1.27c0.02,0.92,0.08,1.84,0.25,2.75c0.16,0.92,0.43,1.79,0.86,2.62
		c0.42,0.82,0.96,1.57,1.62,2.22c0.65,0.65,1.4,1.2,2.23,1.62c0.84,0.43,1.7,0.7,2.61,0.87c0.92,0.17,1.84,0.22,2.76,0.25
		c0.43,0.01,0.85,0.01,1.27,0.01c0.5,0,1,0,1.51,0h129.68c0.49,0,1,0,1.49,0c0.42,0,0.85,0,1.27-0.01c0.92-0.03,1.85-0.08,2.75-0.25
		c0.93-0.17,1.78-0.44,2.63-0.87c0.82-0.42,1.58-0.97,2.23-1.62c0.66-0.65,1.2-1.4,1.62-2.22c0.42-0.84,0.7-1.7,0.86-2.62
		c0.16-0.91,0.22-1.83,0.25-2.75c0-0.42,0-0.84,0-1.27c0.02-0.5,0.02-1,0.02-1.5V28.21c0-0.5,0-1-0.02-1.5c0-0.42,0-0.84,0-1.27
		c-0.03-0.92-0.09-1.84-0.25-2.75c-0.16-0.92-0.43-1.78-0.86-2.62c-0.42-0.82-0.97-1.58-1.62-2.23c-0.65-0.65-1.4-1.2-2.23-1.62
		c-0.84-0.43-1.7-0.7-2.63-0.86c-0.9-0.17-1.82-0.22-2.75-0.24c-0.42-0.01-0.85-0.01-1.27-0.02
		C-263.88,15.09-264.38,15.09-264.88,15.09L-264.88,15.09z"/>
	<path class="st11" d="M-264.88,15.94c0.49,0,0.99,0,1.48,0l0.07,0l1.18,0.01c0.74,0.02,1.7,0.07,2.63,0.23
		c0.86,0.15,1.64,0.41,2.38,0.79c0.75,0.38,1.42,0.87,2.01,1.46c0.59,0.59,1.08,1.27,1.47,2.01c0.38,0.74,0.63,1.52,0.78,2.39
		c0.17,0.9,0.22,1.83,0.24,2.62c0.01,0.42,0.01,0.83,0.01,1.27c0.01,0.49,0.01,0.99,0.01,1.48v17.28c0,0.5,0,0.99-0.01,1.5
		c0,0.42,0,0.83-0.01,1.24c-0.02,0.79-0.07,1.73-0.24,2.64c-0.15,0.85-0.4,1.64-0.77,2.37c-0.39,0.75-0.88,1.42-1.48,2.01
		c-0.59,0.59-1.26,1.08-2.01,1.46c-0.72,0.37-1.51,0.63-2.38,0.79c-0.91,0.16-1.84,0.21-2.62,0.23c-0.42,0.01-0.84,0.01-1.26,0.01
		c-0.49,0-0.99,0-1.48,0h-129.68c-0.5,0-1,0-1.51,0c-0.42,0-0.83,0-1.24-0.01c-0.79-0.03-1.72-0.07-2.63-0.23
		c-0.87-0.16-1.65-0.42-2.38-0.79c-0.74-0.37-1.42-0.87-2.02-1.47c-0.59-0.58-1.08-1.25-1.46-2c-0.37-0.73-0.63-1.5-0.78-2.38
		c-0.17-0.94-0.21-1.89-0.23-2.63c-0.01-0.29-0.01-0.58-0.01-0.88l-0.01-0.36v-1.5V28.21v-1.49l0.01-0.38
		c0-0.29,0.01-0.58,0.01-0.87c0.02-0.73,0.06-1.68,0.23-2.63c0.15-0.88,0.41-1.66,0.78-2.38c0.38-0.75,0.87-1.43,1.46-2.01
		c0.6-0.6,1.27-1.09,2.01-1.46c0.73-0.38,1.51-0.63,2.37-0.79c0.93-0.17,1.89-0.21,2.62-0.23l1.25-0.02c0.5,0,1,0,1.51,0H-264.88"/>
	<linearGradient id="SVGID_11_" gradientUnits="userSpaceOnUse" x1="-382.8545" y1="49.0832" x2="-382.8545" y2="12.5843">
		<stop  offset="0" style="stop-color:#48484A"/>
		<stop  offset="4.823020e-03" style="stop-color:#717375"/>
		<stop  offset="0.0978" style="stop-color:#848688"/>
		<stop  offset="0.2199" style="stop-color:#979A9C"/>
		<stop  offset="0.3548" style="stop-color:#A7A9AC"/>
		<stop  offset="0.5074" style="stop-color:#B3B5B7"/>
		<stop  offset="0.6924" style="stop-color:#BABCBE"/>
		<stop  offset="1" style="stop-color:#BCBEC0"/>
	</linearGradient>
	<path class="st13" d="M-382.9,35.39l9.35,13.76h-18.6L-382.9,35.39z M-398.58,26.24v19.15h7l1.33-1.97h-6.35v-15.2h27.5v15.2h-6.41
		l1.34,1.97h7.05V26.24H-398.58z"/>
	<path class="st12" d="M-351.59,23.87l-2.34,8.29h-0.95l-1.07-4.43c-0.29-1.17-0.48-2.07-0.57-2.73h-0.02
		c-0.1,0.59-0.31,1.51-0.65,2.73l-1.23,4.43h-0.96l-2.09-8.29h0.99l1.01,4.31c0.27,1.11,0.48,2.07,0.62,2.87h0.04
		c0.09-0.56,0.32-1.52,0.69-2.88l1.14-4.3h0.95l1.05,4.29c0.3,1.22,0.5,2.18,0.6,2.88h0.03c0.14-0.77,0.36-1.73,0.66-2.88l1.15-4.29
		H-351.59z M-345.88,29.14c0,0.9-0.25,1.64-0.75,2.22c-0.52,0.62-1.23,0.93-2.11,0.93c-0.85,0-1.52-0.3-2.03-0.91
		c-0.49-0.56-0.73-1.28-0.73-2.15c0-0.89,0.25-1.63,0.75-2.21c0.52-0.61,1.23-0.92,2.11-0.92c0.85,0,1.53,0.3,2.04,0.89
		C-346.12,27.55-345.88,28.26-345.88,29.14z M-346.85,29.18c0-0.62-0.15-1.15-0.44-1.6c-0.34-0.51-0.8-0.76-1.4-0.76
		c-0.62,0-1.09,0.26-1.43,0.77c-0.29,0.44-0.44,0.98-0.44,1.62c0,0.6,0.15,1.13,0.46,1.58c0.34,0.52,0.81,0.77,1.4,0.77
		c0.58,0,1.05-0.26,1.4-0.79C-347,30.33-346.85,29.79-346.85,29.18z M-341.88,26.98c-0.1,0-0.21,0-0.34,0
		c-0.49,0-0.87,0.22-1.15,0.65c-0.23,0.36-0.34,0.8-0.34,1.31v3.21h-0.94v-4.13c0-0.61-0.01-1.21-0.04-1.81h0.81l0.04,1.17h0.04
		c0.14-0.39,0.35-0.71,0.65-0.94c0.3-0.23,0.62-0.35,0.99-0.35c0.11,0,0.2,0.01,0.28,0.03V26.98z M-336.04,32.16h-1.14l-2.09-2.92
		l-0.55,0.62v2.3h-0.93v-8.72h0.93v5.55h0.02c0.17-0.24,0.34-0.46,0.52-0.68l1.8-2.09h1.13l-2.27,2.46L-336.04,32.16z
		 M-331.84,30.52c0,0.53-0.19,0.96-0.57,1.28c-0.38,0.32-0.9,0.48-1.56,0.48c-0.62,0-1.15-0.14-1.6-0.41l0.24-0.72
		c0.44,0.27,0.9,0.4,1.38,0.4c0.39,0,0.69-0.09,0.9-0.28c0.2-0.16,0.29-0.38,0.29-0.66c0-0.27-0.09-0.49-0.25-0.66
		c-0.17-0.17-0.46-0.34-0.87-0.51c-1.02-0.39-1.52-0.94-1.52-1.65c0-0.48,0.18-0.89,0.53-1.21c0.36-0.32,0.83-0.48,1.42-0.48
		c0.54,0,1.01,0.12,1.4,0.36l-0.26,0.7c-0.36-0.22-0.75-0.33-1.18-0.33c-0.32,0-0.57,0.08-0.75,0.25c-0.18,0.17-0.27,0.37-0.27,0.62
		c0,0.24,0.09,0.45,0.29,0.61c0.15,0.14,0.43,0.29,0.84,0.45C-332.35,29.15-331.84,29.75-331.84,30.52z M-319.83,26.22l-1.91,5.94
		h-0.86l-0.94-2.96c-0.24-0.76-0.41-1.42-0.53-1.96h-0.02c-0.13,0.6-0.31,1.25-0.55,1.97l-0.99,2.95h-0.87l-1.77-5.94h0.96l0.83,3.1
		c0.19,0.72,0.34,1.35,0.45,1.89h0.03c0.11-0.48,0.28-1.11,0.54-1.88l1.01-3.11h0.8l0.96,3.06c0.21,0.67,0.39,1.32,0.52,1.93h0.03
		c0.1-0.52,0.26-1.15,0.48-1.92l0.89-3.08H-319.83z M-317.44,24.45c0,0.21-0.07,0.38-0.22,0.5c-0.13,0.09-0.26,0.13-0.42,0.13
		c-0.16,0-0.3-0.05-0.4-0.15c-0.14-0.12-0.21-0.28-0.21-0.49c0-0.18,0.06-0.33,0.18-0.46c0.12-0.12,0.27-0.19,0.45-0.19
		c0.18,0,0.34,0.06,0.45,0.19C-317.5,24.12-317.44,24.27-317.44,24.45z M-317.6,32.16h-0.94v-5.94h0.94V32.16z M-312.97,26.94h-1.55
		v3.39c0,0.78,0.27,1.17,0.81,1.17c0.24,0,0.45-0.03,0.62-0.09l0.05,0.73c-0.24,0.09-0.54,0.14-0.9,0.14
		c-0.48,0-0.86-0.15-1.12-0.45c-0.26-0.3-0.4-0.8-0.4-1.5v-3.39h-0.93v-0.73h0.93v-1.08l0.93-0.31v1.39h1.55V26.94z M-306.97,32.16
		h-0.93v-3.47c0-1.21-0.47-1.82-1.4-1.82c-0.35,0-0.66,0.1-0.93,0.33c-0.27,0.21-0.47,0.49-0.58,0.81
		c-0.05,0.14-0.07,0.32-0.07,0.53v3.61h-0.94v-8.72h0.94v3.73h0.02c0.19-0.33,0.46-0.59,0.79-0.78c0.34-0.19,0.7-0.29,1.08-0.29
		c0.5,0,0.93,0.16,1.29,0.47c0.49,0.44,0.74,1.11,0.74,2.02V32.16z"/>
	<path d="M-352.4,49.12l-1.45-4.27h-4.7l-1.41,4.27h-1.53l4.47-13.2h1.72l4.47,13.2H-352.4z M-358.22,43.67h4.06l-1.34-3.94
		c-0.09-0.25-0.19-0.58-0.3-0.98c-0.11-0.4-0.24-0.89-0.38-1.45h-0.04c-0.13,0.52-0.25,0.98-0.35,1.38c-0.1,0.4-0.21,0.74-0.31,1.03
		L-358.22,43.67z M-340.82,44.26c0,0.76-0.11,1.44-0.3,2.06c-0.21,0.62-0.49,1.16-0.86,1.6c-0.38,0.45-0.82,0.79-1.34,1.04
		c-0.52,0.24-1.09,0.37-1.71,0.37c-1.33,0-2.3-0.51-2.9-1.53h-0.04V53h-1.49V42.71c0-0.51-0.01-1.01-0.02-1.53
		c-0.01-0.51-0.03-1.02-0.06-1.53h1.35v1.64h0.11c0.7-1.23,1.81-1.84,3.31-1.84c0.56,0,1.09,0.12,1.57,0.36
		c0.48,0.23,0.9,0.56,1.25,0.98c0.35,0.42,0.63,0.92,0.82,1.52C-340.92,42.91-340.82,43.55-340.82,44.26z M-342.33,44.32
		c0-0.52-0.07-1.01-0.21-1.46c-0.14-0.45-0.33-0.84-0.58-1.16c-0.25-0.33-0.55-0.58-0.91-0.77c-0.36-0.19-0.75-0.27-1.18-0.27
		c-0.34,0-0.68,0.07-1.01,0.21c-0.33,0.15-0.63,0.35-0.89,0.61c-0.26,0.26-0.47,0.57-0.63,0.93c-0.15,0.36-0.23,0.76-0.23,1.18v1.72
		c0,0.4,0.07,0.76,0.21,1.1c0.14,0.34,0.32,0.64,0.56,0.89c0.23,0.25,0.52,0.45,0.85,0.61c0.33,0.15,0.69,0.22,1.09,0.22
		c0.9,0,1.62-0.34,2.14-1.03C-342.59,46.42-342.33,45.49-342.33,44.32z M-330.62,44.26c0,0.76-0.1,1.44-0.3,2.06
		c-0.2,0.62-0.49,1.16-0.86,1.6c-0.38,0.45-0.82,0.79-1.33,1.04c-0.52,0.24-1.09,0.37-1.71,0.37c-1.33,0-2.3-0.51-2.9-1.53h-0.04V53
		h-1.49V42.71c0-0.51-0.01-1.01-0.03-1.53c-0.01-0.51-0.03-1.02-0.05-1.53h1.35v1.64h0.11c0.71-1.23,1.81-1.84,3.31-1.84
		c0.56,0,1.08,0.12,1.56,0.36c0.48,0.23,0.9,0.56,1.26,0.98c0.35,0.42,0.62,0.92,0.82,1.52S-330.62,43.55-330.62,44.26z
		 M-332.12,44.32c0-0.52-0.07-1.01-0.21-1.46c-0.14-0.45-0.33-0.84-0.58-1.16c-0.25-0.33-0.55-0.58-0.91-0.77
		c-0.36-0.19-0.76-0.27-1.19-0.27c-0.34,0-0.68,0.07-1.01,0.21c-0.33,0.15-0.63,0.35-0.89,0.61c-0.26,0.26-0.47,0.57-0.63,0.93
		c-0.15,0.36-0.23,0.76-0.23,1.18v1.72c0,0.4,0.07,0.76,0.21,1.1c0.14,0.34,0.32,0.64,0.56,0.89c0.23,0.25,0.52,0.45,0.85,0.61
		c0.34,0.15,0.69,0.22,1.09,0.22c0.9,0,1.62-0.34,2.14-1.03C-332.39,46.42-332.12,45.49-332.12,44.32z M-327.39,49.12h-1.49V35.23
		h1.49V49.12z M-317.49,43.81c0,0.31-0.02,0.57-0.06,0.77h-6.56c0.02,1.12,0.32,1.99,0.89,2.61c0.56,0.62,1.36,0.93,2.38,0.93
		c0.97,0,1.81-0.16,2.54-0.49l0.27,1.08c-0.82,0.39-1.83,0.59-3.03,0.59c-0.7,0-1.34-0.12-1.89-0.34c-0.56-0.23-1.03-0.56-1.42-0.98
		c-0.39-0.42-0.68-0.93-0.89-1.51c-0.2-0.58-0.3-1.22-0.3-1.93c0-0.74,0.11-1.42,0.31-2.05c0.21-0.62,0.5-1.15,0.87-1.61
		c0.38-0.45,0.83-0.8,1.36-1.06c0.53-0.25,1.12-0.38,1.77-0.38c0.58,0,1.11,0.11,1.57,0.32c0.46,0.22,0.86,0.52,1.18,0.9
		c0.33,0.39,0.58,0.85,0.75,1.38C-317.58,42.58-317.49,43.17-317.49,43.81z M-318.96,43.48c0-0.9-0.21-1.62-0.63-2.15
		c-0.42-0.53-1.02-0.79-1.8-0.79c-0.73,0-1.34,0.27-1.82,0.82c-0.49,0.55-0.77,1.25-0.87,2.11H-318.96z M-302.98,49.13l-1.45-4.27
		h-4.7l-1.41,4.27h-1.53l4.47-13.21h1.73l4.47,13.21H-302.98z M-308.8,43.69h4.06l-1.33-3.94c-0.09-0.25-0.19-0.57-0.3-0.98
		c-0.11-0.4-0.24-0.89-0.38-1.45h-0.04c-0.13,0.52-0.25,0.98-0.35,1.38c-0.11,0.4-0.21,0.74-0.31,1.03L-308.8,43.69z M-298.04,36.82
		c0,0.3-0.1,0.54-0.29,0.73c-0.19,0.19-0.44,0.29-0.73,0.29c-0.27,0-0.51-0.1-0.7-0.29c-0.19-0.19-0.28-0.44-0.28-0.73
		c0-0.29,0.09-0.53,0.28-0.73c0.19-0.19,0.43-0.29,0.72-0.29c0.3,0,0.55,0.1,0.74,0.29C-298.12,36.29-298.02,36.54-298.04,36.82z
		 M-298.3,49.13h-1.49v-9.47h1.49V49.13z M-291.2,40.92c-0.08-0.01-0.16-0.02-0.25-0.03c-0.09-0.01-0.19-0.01-0.3-0.01
		c-0.35,0-0.68,0.08-0.97,0.24c-0.3,0.16-0.55,0.37-0.76,0.65c-0.21,0.28-0.37,0.6-0.49,0.99c-0.12,0.39-0.17,0.81-0.17,1.27v5.12
		h-1.49v-6.59c0-0.48,0-0.96-0.01-1.44c-0.01-0.48-0.02-0.96-0.05-1.44h1.31v1.86h0.12c0.22-0.63,0.56-1.13,1.03-1.5
		c0.47-0.37,0.99-0.56,1.58-0.56c0.09,0,0.17,0.01,0.25,0.01c0.07,0.01,0.14,0.02,0.21,0.03V40.92z M-281.89,39.63
		c0,0.68-0.12,1.29-0.36,1.81c-0.24,0.53-0.58,0.97-1.01,1.33c-0.43,0.36-0.95,0.63-1.56,0.81c-0.61,0.18-1.27,0.27-1.99,0.27
		c-0.64,0-1.11-0.05-1.39-0.14v5.41h-1.49V36.08c0.47-0.09,0.97-0.16,1.48-0.19c0.52-0.04,1.05-0.06,1.62-0.06
		c1.54,0,2.71,0.34,3.51,1.03C-282.29,37.54-281.89,38.47-281.89,39.63z M-283.38,39.73c0-0.9-0.29-1.58-0.86-2.03
		c-0.57-0.45-1.35-0.68-2.33-0.68c-0.68,0-1.22,0.05-1.63,0.14v5.35c0.38,0.1,0.85,0.15,1.43,0.15c1.06,0,1.89-0.25,2.49-0.76
		C-283.68,41.39-283.38,40.67-283.38,39.73z M-278.87,49.13h-1.49v-13.9h1.49V49.13z M-271.09,49.13l-0.14-1.22h-0.06
		c-0.64,0.95-1.6,1.43-2.86,1.43c-0.4,0-0.78-0.07-1.12-0.2c-0.34-0.13-0.63-0.32-0.88-0.56c-0.25-0.24-0.45-0.53-0.59-0.85
		c-0.14-0.32-0.22-0.69-0.22-1.08c0-1.15,0.48-2.02,1.43-2.62c0.95-0.6,2.34-0.89,4.15-0.89v-0.22c0-1.56-0.73-2.33-2.17-2.33
		c-0.9,0-1.7,0.23-2.4,0.69l-0.35-1.02c0.83-0.53,1.82-0.8,2.96-0.8c2.3,0,3.45,1.26,3.45,3.78v3.63c0,0.46,0.01,0.87,0.03,1.24
		c0.02,0.37,0.05,0.71,0.11,1.01H-271.09z M-271.35,44.23h-0.3c-2.53,0-3.8,0.74-3.8,2.23c0,0.59,0.16,1.03,0.47,1.32
		c0.31,0.28,0.71,0.43,1.18,0.43c0.3,0,0.6-0.05,0.89-0.15c0.29-0.11,0.56-0.25,0.78-0.44c0.23-0.19,0.41-0.42,0.56-0.7
		c0.15-0.27,0.22-0.58,0.22-0.92V44.23z M-260.19,39.67l-2.57,6.76c-0.64,1.66-1.17,2.9-1.59,3.72c-0.54,1.03-1.11,1.81-1.72,2.32
		c-0.62,0.52-1.22,0.84-1.83,0.97l-0.41-1.25c0.63-0.23,1.21-0.59,1.73-1.11c0.52-0.52,0.94-1.13,1.25-1.83
		c0.08-0.17,0.12-0.31,0.12-0.41c0-0.09-0.04-0.23-0.12-0.43l-3.41-8.74h1.63l2.12,5.74c0.1,0.28,0.21,0.58,0.31,0.9
		c0.1,0.33,0.2,0.68,0.29,1.06h0.06c0.06-0.22,0.15-0.5,0.25-0.82c0.1-0.33,0.22-0.72,0.36-1.18l1.94-5.7H-260.19z"/>
</g>
<g>
	<g>
		<path d="M-95.11,49.32c8.65,0,15.68-7.03,15.68-15.68v-9.45c0-8.65-7.03-15.69-15.68-15.69h-61.43c-8.65,0-15.69,7.04-15.69,15.69
			v9.45c0,8.65,7.03,15.68,15.69,15.68H-95.11z"/>
		<path class="st11" d="M-123.72,34.03V23.81c0-7.55,5.84-13.7,13.01-13.7h16.34c7.18,0,13.41,6.15,13.41,13.7v10.22
			c0,7.55-6.23,13.7-13.41,13.7c0,0-24.01,0-35.98,0C-126.33,44.64-123.72,39.65-123.72,34.03z"/>
		<g>
			<path class="st11" d="M-164.21,18.21h4.62l3.07,13.65h0.05l4.02-13.65h3.94l3.99,14h0.05l3.23-14h4.29l-5.62,21.28h-3.77
				l-4.24-14.72h-0.05l-4.24,14.72h-3.64L-164.21,18.21z"/>
			<path class="st11" d="M-134.43,24.88h4.42v14.6h-4.42V24.88z"/>
			<path class="st11" d="M-132.22,17.67c1.44,0,2.62,1.17,2.62,2.61c0,1.44-1.17,2.61-2.62,2.61c-1.44,0-2.61-1.17-2.61-2.61
				C-134.83,18.84-133.66,17.67-132.22,17.67z"/>
		</g>
		<g>
			<path d="M-116.59,18.21h15.95v4.32h-11.27v4.33h10.55v4.32h-10.55v8.29h-4.69V18.21z"/>
			<path d="M-95.25,17.67c1.44,0,2.62,1.17,2.62,2.61c0,1.44-1.17,2.61-2.62,2.61c-1.44,0-2.61-1.17-2.61-2.61
				C-97.86,18.84-96.69,17.67-95.25,17.67z M-97.51,24.88H-93v14.6h-4.51V24.88z"/>
		</g>
	</g>
	<g>
		<g>
			<path d="M-159.28,65.2c-0.7,0-1.35-0.13-1.97-0.38c-0.61-0.25-1.14-0.6-1.6-1.05c-0.45-0.45-0.81-0.98-1.08-1.61
				c-0.26-0.61-0.4-1.29-0.4-2.01v-0.03c0-0.71,0.13-1.37,0.4-1.99c0.26-0.62,0.61-1.16,1.07-1.62c0.45-0.46,1-0.82,1.63-1.08
				c0.63-0.26,1.31-0.39,2.06-0.39c0.5,0,0.95,0.05,1.37,0.15c0.41,0.1,0.78,0.24,1.12,0.42c0.34,0.18,0.65,0.4,0.92,0.64
				c0.27,0.26,0.52,0.53,0.74,0.82l-2.04,1.58c-0.28-0.35-0.58-0.63-0.92-0.84c-0.34-0.2-0.74-0.3-1.22-0.3
				c-0.35,0-0.66,0.07-0.94,0.2c-0.29,0.13-0.53,0.32-0.73,0.55c-0.21,0.24-0.37,0.51-0.48,0.83c-0.11,0.32-0.17,0.65-0.17,1.01
				v0.02c0,0.36,0.06,0.71,0.17,1.03c0.12,0.32,0.28,0.6,0.48,0.83c0.21,0.23,0.45,0.42,0.73,0.55c0.29,0.13,0.6,0.2,0.94,0.2
				c0.25,0,0.48-0.03,0.69-0.08c0.21-0.05,0.4-0.14,0.57-0.24c0.17-0.11,0.33-0.23,0.49-0.37c0.15-0.15,0.3-0.31,0.45-0.48
				l2.04,1.45c-0.23,0.32-0.49,0.61-0.76,0.88c-0.27,0.27-0.58,0.5-0.93,0.7c-0.35,0.2-0.74,0.35-1.17,0.46
				C-158.25,65.14-158.73,65.2-159.28,65.2z"/>
			<path d="M-153.65,55.23h7.84v2.3h-5.18v1.48h4.69v2.14h-4.69v1.55h5.25V65h-7.92V55.23z"/>
			<path d="M-144.2,55.23h4.62c0.76,0,1.39,0.1,1.91,0.28c0.52,0.19,0.95,0.45,1.27,0.78c0.58,0.56,0.87,1.32,0.87,2.28v0.02
				c0,0.76-0.18,1.38-0.55,1.88c-0.36,0.49-0.85,0.87-1.46,1.13l2.33,3.41h-3.13l-1.97-2.96h-0.03h-1.16V65h-2.71V55.23z
				 M-139.7,59.92c0.47,0,0.82-0.11,1.07-0.31c0.26-0.21,0.38-0.5,0.38-0.85v-0.03c0-0.4-0.13-0.68-0.39-0.87
				c-0.26-0.19-0.61-0.29-1.07-0.29h-1.77v2.35H-139.7z"/>
			<path d="M-131.64,57.6h-2.93v-2.37h8.57v2.37h-2.93V65h-2.71V57.6z"/>
			<path d="M-124.61,55.23h2.72V65h-2.72V55.23z"/>
			<path d="M-119.96,55.23h7.82v2.37h-5.11v1.65h4.62v2.26h-4.62V65h-2.71V55.23z"/>
			<path d="M-110.72,55.23h2.72V65h-2.72V55.23z"/>
			<path d="M-106.07,55.23h7.85v2.3h-5.18v1.48h4.69v2.14h-4.69v1.55h5.25V65h-7.92V55.23z"/>
			<path d="M-96.62,55.23h3.77c0.88,0,1.66,0.12,2.34,0.36c0.69,0.24,1.26,0.57,1.73,1c0.47,0.43,0.82,0.94,1.07,1.53
				s0.37,1.24,0.37,1.95v0.03c0,0.71-0.13,1.36-0.37,1.96c-0.25,0.6-0.61,1.12-1.09,1.56c-0.48,0.44-1.06,0.78-1.75,1.03
				c-0.7,0.24-1.48,0.37-2.35,0.37h-3.72V55.23z M-92.8,62.6c0.81,0,1.46-0.21,1.96-0.64c0.5-0.43,0.74-1.04,0.74-1.83V60.1
				c0-0.78-0.24-1.39-0.74-1.82c-0.5-0.43-1.15-0.65-1.96-0.65h-1.11v4.96H-92.8z"/>
		</g>
	</g>
	<g>
		<path d="M-78,10.56c0.35,0.18,0.62,0.45,0.82,0.81c0.2,0.35,0.3,0.72,0.3,1.11c0,0.38-0.1,0.74-0.29,1.09
			c-0.2,0.35-0.47,0.62-0.82,0.81c-0.35,0.19-0.71,0.29-1.09,0.29c-0.38,0-0.75-0.1-1.09-0.29c-0.35-0.19-0.62-0.46-0.82-0.81
			c-0.19-0.35-0.29-0.71-0.29-1.09c0-0.38,0.1-0.75,0.3-1.11c0.2-0.35,0.47-0.62,0.82-0.81c0.35-0.19,0.7-0.28,1.08-0.28
			C-78.71,10.27-78.35,10.37-78,10.56z M-80.44,10.09c-0.43,0.24-0.77,0.57-1.02,1.01c-0.24,0.44-0.37,0.9-0.37,1.38
			c0,0.48,0.12,0.93,0.36,1.36c0.24,0.43,0.58,0.77,1.01,1.01c0.43,0.24,0.89,0.36,1.36,0.36c0.48,0,0.93-0.12,1.37-0.36
			c0.43-0.24,0.77-0.58,1.01-1.01c0.24-0.43,0.36-0.88,0.36-1.36c0-0.48-0.12-0.93-0.37-1.38c-0.24-0.43-0.58-0.77-1.02-1.01
			c-0.43-0.24-0.88-0.35-1.35-0.35C-79.56,9.73-80.01,9.85-80.44,10.09z M-79.74,13.93v-1.19h0.16c0.16,0,0.3,0.04,0.41,0.13
			c0.11,0.08,0.24,0.28,0.4,0.6l0.24,0.47h0.73l-0.34-0.58c-0.12-0.2-0.19-0.32-0.21-0.35c-0.08-0.11-0.15-0.19-0.19-0.23
			c-0.05-0.04-0.12-0.07-0.21-0.11c0.24-0.03,0.44-0.13,0.58-0.27c0.14-0.15,0.21-0.33,0.21-0.54c0-0.15-0.04-0.29-0.11-0.42
			c-0.07-0.12-0.16-0.21-0.27-0.28c-0.11-0.06-0.25-0.1-0.45-0.11c-0.07-0.01-0.37-0.01-0.93-0.01h-0.58v2.89H-79.74z M-79.74,11.49
			h0.24c0.34,0,0.55,0.02,0.63,0.05c0.08,0.03,0.15,0.07,0.2,0.13c0.05,0.07,0.07,0.14,0.07,0.22c0,0.08-0.02,0.16-0.08,0.22
			c-0.05,0.07-0.11,0.11-0.19,0.14c-0.08,0.02-0.29,0.04-0.63,0.04h-0.24V11.49z"/>
	</g>
</g>
<g>
	<g>
		<defs>
			<path id="SVGID_12_" d="M311.27,54.65c-11.94,0.41-22.88-0.74-31.45-2.99l-13.52,17.3h34.5l7.73-9.9l0.34-0.44l0.35,0.44
				l7.73,9.9h34.51l-14.02-17.94C329.89,53.03,320.92,54.34,311.27,54.65 M311.1,45.92c-9.27,0.3-17.99-0.32-25.47-1.68l-1.99,2.54
				c7.52,2.02,16.42,3.36,25.99,3.74c9.56,0.39,18.48-0.26,26.12-1.64l-4.13-5.28C325.39,44.85,318.44,45.67,311.1,45.92
				 M310.91,37.2c-7.16,0.24-13.98-0.09-20.16-0.87l0.53,0.68l-1.89,2.41c6.12,1.24,12.91,2.06,20.07,2.36
				c7.16,0.29,13.98,0.01,20.17-0.72l-3.17-4.05l1.11-1.42C322.39,36.43,316.78,37,310.91,37.2 M310.77,28.46
				c-10.28,0.36-19.87-0.47-27.85-2.15l2.83,3.62c6.97,1.66,14.98,2.78,23.54,3.12c7.45,0.29,14.54-0.02,20.92-0.83l5.55-7.09
				C328.45,26.95,319.92,28.15,310.77,28.46 M316.74,4.76l-7.76,9.9l-0.11,0.13l-0.11-0.13l-7.75-9.9h-34.97l10.86,13.88
				c8.58,3.07,19.84,5.18,32.23,5.68c10.75,0.41,20.77-0.42,28.97-2.21L351.7,4.76H316.74z"/>
		</defs>
		<clipPath id="SVGID_13_">
			<use xlink:href="#SVGID_12_"  style="overflow:visible;"/>
		</clipPath>
		
			<linearGradient id="SVGID_14_" gradientUnits="userSpaceOnUse" x1="-2184.8455" y1="206.0366" x2="-2180.8938" y2="206.0366" gradientTransform="matrix(21.6734 0 0 21.6734 47619.0508 -4428.6465)">
			<stop  offset="0" style="stop-color:#FDB813"/>
			<stop  offset="1" style="stop-color:#F26522"/>
		</linearGradient>
		<rect x="266.06" y="4.76" class="st14" width="85.64" height="64.21"/>
	</g>
	<path d="M229.28,28.16c-4.65,0-8.27,0.08-8.27,0.08c-4.5,0.11-6.71,0.05-6.71,0.05c-4.71,0-8.66-3.2-8.77-7.54
		c-0.1-4.08,3.19-7.41,8.2-7.68c0,0,2.22-0.21,6.04,0.3l-0.02-0.44l0.01-8.17l9.5-0.03v8.82h4.66v-2.93l9.24-4.05l0.01,6.97
		l3.33-0.01l-0.03,2.43c-1.8-0.05-3.31-0.05-3.31-0.05v4.54c0,0.22-0.01,2.37,0.08,2.9c0,0,0.13,1.24,1.14,2.07
		c0,0,0.58,0.54,1.87,0.64c0,0,0.43,0.05,1.23,0.05h2.19h0.08c1.64-0.01,2.13-0.32,2.13-0.32c0.7-0.32,1.13-1,1.13-1.74
		c0-0.57-0.25-1.06-0.63-1.43l-0.02-0.02l-2.4-2.3c-0.75-0.7-1.15-1.28-1.3-1.53l-0.02-0.03c-0.3-0.49-0.47-1.07-0.47-1.69
		c0-1.21,0.68-2.27,1.65-2.83l0.07-0.04c0.89-0.57,5.46-2.2,13.74-0.28l-0.06,2.09l-0.17-0.01c0,0-2.21-0.21-3.09-0.04l-0.02,0.01
		c-0.69,0.11-1.21,0.64-1.21,1.34c0,0.34,0.14,0.7,0.36,0.93l0.06,0.05l3.32,3.25l0.03,0.03c0.68,0.68,1.09,1.61,1.09,2.64
		c0,1.65-1.22,3.15-2.7,3.65c0,0-0.94,0.38-2.49,0.47c0,0-0.73,0.06-2.81,0.09h-0.12c-7.52,0.09-15.34-0.06-15.34-0.06l-0.2,0
		c-5.01-0.15-6.01-3.91-6.01-3.91c-0.28-0.7-0.32-2.43-0.32-2.43l0.01-6.09h-4.66L229.28,28.16 M214.37,20.94
		c0.05,2.53,1.19,3.86,1.19,3.86c0.77,1.06,2.23,1.16,2.23,1.16c0.82,0.1,1.96-0.08,1.96-0.08l0.02-10.17c0,0-1.11-0.13-1.98-0.02
		c0,0-1.43,0.06-2.3,1.26c0,0-1.1,1.4-1.13,3.77V20.94z"/>
	<path d="M205.53,34.5h2.8l1.71,11c0.11,0.7,0.19,1.37,0.23,1.98c0.05,0.63,0.08,1.26,0.08,1.89v0.34c0.03-0.82,0.07-1.58,0.12-2.29
		c0.06-0.72,0.12-1.36,0.2-1.91l1.66-11h2.81l-3.29,18.58h-2.99L205.53,34.5z"/>
	<rect x="216.85" y="34.5" width="2.92" height="18.58"/>
	<path d="M225.49,45.26v7.82h-2.87V34.5h4.2c1.58,0,2.71,0.42,3.42,1.27c0.7,0.85,1.05,2.22,1.05,4.09c0,1.17-0.15,2.11-0.43,2.83
		c-0.28,0.72-0.75,1.3-1.39,1.75l2.11,8.63h-2.97l-1.77-7.82H225.49z M225.49,37.18v5.4h1.13c0.66,0,1.12-0.19,1.38-0.6
		c0.26-0.41,0.39-1.14,0.39-2.22c0-0.98-0.13-1.66-0.4-2.02c-0.27-0.38-0.76-0.57-1.46-0.57H225.49z"/>
	<polygon points="232,37.18 232,34.5 240.81,34.5 240.81,37.18 237.83,37.18 237.83,53.09 234.97,53.09 234.97,37.18 	"/>
	<path d="M241.92,34.5h2.93v14.39c0,0.55,0.14,0.98,0.42,1.3c0.28,0.31,0.64,0.48,1.1,0.48c0.45,0,0.81-0.16,1.07-0.48
		c0.26-0.31,0.39-0.75,0.39-1.3V34.5h2.91v13.89c0,1.64-0.38,2.89-1.14,3.77c-0.75,0.89-1.84,1.32-3.26,1.32
		c-1.43,0-2.53-0.44-3.28-1.33c-0.76-0.89-1.14-2.16-1.14-3.84V34.5z"/>
	<path d="M252.19,53.08l3.06-18.58h3.75l3.04,18.58h-2.94l-0.58-4.02h-2.89L255,53.08H252.19z M255.98,46.43h2.19l-0.98-7.76h-0.18
		L255.98,46.43z"/>
	<polygon points="263.68,53.08 263.68,34.5 266.52,34.5 266.52,50.4 270.97,50.4 270.97,53.08 	"/>
	<polygon points="354.67,8.85 354.67,5.23 353.29,5.23 353.29,4.76 356.6,4.76 356.6,5.23 355.22,5.23 355.22,8.85 	"/>
	<polygon points="357.15,4.76 358.15,4.76 359.31,8.13 360.5,4.76 361.43,4.76 361.43,8.84 360.88,8.84 360.88,5.17 359.53,8.84 
		358.99,8.84 357.7,5.19 357.7,8.84 357.15,8.84 	"/>
	<path d="M262.03,4.73c0.3,0,0.59,0.09,0.87,0.23c0.28,0.15,0.51,0.38,0.66,0.66c0.15,0.28,0.23,0.58,0.23,0.9
		c0,0.3-0.08,0.59-0.23,0.88c-0.16,0.29-0.38,0.51-0.66,0.65c-0.28,0.15-0.58,0.23-0.89,0.23c-0.31,0-0.6-0.08-0.89-0.23
		c-0.28-0.15-0.5-0.36-0.66-0.65c-0.16-0.28-0.23-0.58-0.23-0.88c0-0.32,0.08-0.61,0.24-0.9c0.15-0.28,0.38-0.5,0.66-0.66
		C261.44,4.82,261.73,4.73,262.03,4.73 M262.03,5.02c-0.25,0-0.49,0.08-0.73,0.2c-0.24,0.13-0.42,0.31-0.56,0.55
		c-0.13,0.24-0.19,0.49-0.19,0.75c0,0.25,0.06,0.49,0.19,0.73c0.13,0.23,0.32,0.42,0.55,0.55c0.24,0.13,0.48,0.2,0.74,0.2
		s0.5-0.06,0.74-0.2c0.24-0.13,0.42-0.32,0.55-0.55c0.13-0.24,0.2-0.48,0.2-0.73c0-0.26-0.07-0.51-0.2-0.75
		c-0.13-0.24-0.32-0.42-0.55-0.55C262.52,5.1,262.28,5.02,262.03,5.02 M261.25,7.49v-1.9h0.66c0.23,0,0.39,0.01,0.49,0.05
		c0.1,0.03,0.18,0.09,0.24,0.19c0.06,0.08,0.09,0.18,0.09,0.27c0,0.15-0.05,0.26-0.15,0.37c-0.1,0.1-0.23,0.15-0.4,0.17
		c0.07,0.04,0.12,0.08,0.16,0.11c0.08,0.08,0.17,0.2,0.29,0.38l0.23,0.38h-0.38l-0.17-0.3c-0.13-0.23-0.24-0.39-0.32-0.44
		c-0.06-0.04-0.13-0.07-0.25-0.07h-0.18v0.81H261.25z M261.56,6.41h0.38c0.18,0,0.3-0.03,0.36-0.08c0.06-0.05,0.1-0.12,0.1-0.21
		c0-0.06-0.02-0.1-0.04-0.15c-0.03-0.05-0.07-0.08-0.13-0.11c-0.06-0.02-0.16-0.03-0.31-0.03h-0.35V6.41z"/>
</g>
<g>
	<path class="st15" d="M667.72,32.17c0.07,3.33,1.57,5.08,1.57,5.08c1.01,1.38,2.94,1.53,2.94,1.53c1.08,0.13,2.58-0.1,2.58-0.1
		l0.02-13.39c0,0-1.46-0.17-2.6-0.04c0,0-1.87,0.09-3.02,1.66c0,0-1.45,1.85-1.49,4.96V32.17z M687.35,41.68
		c-6.12,0-10.89,0.1-10.89,0.1c-5.92,0.16-8.83,0.08-8.83,0.08c-6.21,0-11.41-4.22-11.55-9.93c-0.13-5.37,4.19-9.76,10.8-10.11
		c0,0,2.92-0.28,7.95,0.4l-0.02-0.58l0.01-10.77l12.52-0.04l0,11.6h6.13v-3.84l12.16-5.35l0.01,9.18l4.39-0.01l-0.04,3.21
		c-2.37-0.07-4.36-0.06-4.36-0.06v5.97c0,0.3-0.01,3.12,0.1,3.81c0,0,0.17,1.65,1.5,2.73c0,0,0.77,0.71,2.45,0.85
		c0,0,0.57,0.06,1.62,0.05h2.89l0.09,0c2.16-0.01,2.81-0.4,2.81-0.4c0.93-0.44,1.48-1.32,1.48-2.3c0-0.75-0.33-1.39-0.83-1.89
		l-0.02-0.02l-3.15-3.02c-0.99-0.93-1.51-1.69-1.71-2.02l-0.02-0.04c-0.4-0.65-0.63-1.41-0.63-2.23c0-1.59,0.89-2.99,2.17-3.73
		l0.09-0.05c1.17-0.73,7.19-2.88,18.09-0.37l-0.09,2.76l-0.23-0.02c0,0-2.91-0.27-4.08-0.05l-0.03,0.01
		c-0.9,0.15-1.59,0.84-1.59,1.76c0,0.45,0.19,0.93,0.48,1.23l0.07,0.07l4.37,4.27l0.04,0.04c0.89,0.89,1.44,2.12,1.44,3.48
		c0,2.16-1.61,4.13-3.55,4.8c0,0-1.24,0.49-3.28,0.62c0,0-0.96,0.07-3.71,0.12h-0.15c-9.91,0.11-20.2-0.08-20.2-0.08l-0.25-0.01
		c-6.6-0.21-7.92-5.15-7.92-5.15c-0.37-0.92-0.41-3.2-0.41-3.2l0.01-8.02l-6.13,0.01L687.35,41.68z"/>
	<path class="st16" d="M603.77,21c3.1-3.33,12.25-5.3,22.84-4.67c12.12,0.72,21.9,4.66,22.84,9.01V25.3c0.07-1.82,0-2.91,0-2.91
		c-0.26-4.63-10.74-8.22-23.57-8.03c-10.58,0.15-19.49,2.83-22.36,6.36c0,0,0.13,0.15,0.24,0.28L603.77,21z"/>
	<path class="st16" d="M606.64,23.21c4.3-2.11,11.68-3.25,19.98-2.75c12.12,0.72,21.9,4.66,22.84,9.01v-0.04
		c0.07-1.82,0-2.91,0-2.91c-0.26-4.63-10.74-8.22-23.57-8.03c-8.44,0.12-15.81,1.84-19.91,4.32c0,0,0.32,0.2,0.64,0.39L606.64,23.21
		z"/>
	<path class="st16" d="M612.11,25.53c4.04-0.89,9.08-1.26,14.51-0.94c12.12,0.72,21.9,4.66,22.84,9.01l0-0.04
		c0.07-1.82,0-2.91,0-2.91c-0.26-4.64-10.74-8.22-23.57-8.04c-5.93,0.09-11.33,0.96-15.44,2.34c0,0,0.86,0.32,1.65,0.57
		L612.11,25.53z"/>
	<path class="st16" d="M602.68,18.28c1.02-4.35,10.98-7.88,23.21-8.06c11.71-0.17,21.31,2.77,23.13,6.81c0,0,0.19,0.43,0.26,0.87
		c0,0,0.18,0.73,0.18,3.15l0,0.15c-0.95-4.35-10.72-8.29-22.83-9.01c-12.3-0.73-22.53,2.19-23.92,6.09L602.68,18.28z"/>
	<path class="st17" d="M648.49,31.72c-2.87,3.53-11.79,6.21-22.36,6.36c-12.83,0.18-23.31-3.4-23.57-8.04c0,0-0.07-1.09,0-2.91
		l0-0.04c0.94,4.35,10.72,8.29,22.84,9.01c10.59,0.63,19.74-1.35,22.84-4.67C648.24,31.43,648.36,31.56,648.49,31.72L648.49,31.72z"
		/>
	<path class="st17" d="M646.02,29.63c-4.1,2.48-11.47,4.21-19.91,4.33c-12.83,0.18-23.31-3.4-23.57-8.04c0,0-0.07-1.09,0-2.91
		l0-0.04c0.94,4.35,10.72,8.29,22.84,9.01c8.3,0.49,15.68-0.64,19.98-2.75c0,0,0.31,0.17,0.64,0.38L646.02,29.63z"/>
	<path class="st17" d="M641.57,27.48c-4.11,1.37-9.51,2.25-15.44,2.34c-12.83,0.18-23.31-3.4-23.57-8.03c0,0-0.07-1.09,0-2.91
		l0-0.04c0.94,4.35,10.72,8.29,22.84,9.01c5.42,0.32,10.46-0.05,14.5-0.94c0,0,0.75,0.23,1.64,0.56L641.57,27.48z"/>
	<path class="st17" d="M649.34,34.16c-1.02,4.34-10.98,7.88-23.21,8.06c-11.7,0.17-21.31-2.77-23.13-6.81c0,0-0.19-0.43-0.26-0.87
		c0,0-0.18-0.73-0.18-3.16l0-0.15c0.95,4.35,10.72,8.29,22.83,9.01c12.3,0.73,22.53-2.19,23.92-6.09L649.34,34.16z"/>
	<polygon class="st15" points="726.83,15.02 726.83,11.41 725.48,11.41 725.48,10.93 728.72,10.93 728.72,11.41 727.37,11.41 
		727.37,15.02 	"/>
	<path class="st15" d="M729.2,15.02v-4.09h0.81l0.97,2.9c0.09,0.27,0.16,0.47,0.2,0.61c0.05-0.15,0.12-0.37,0.22-0.66l0.98-2.85
		h0.73v4.09h-0.52V11.6l-1.19,3.43h-0.49l-1.18-3.48v3.48H729.2z"/>
	<path class="st15" d="M663.09,49.29c-0.46-0.6-1.24-0.77-2.09-0.77h-1.54v10.3h1.73c0.54,0,1.14-0.16,1.52-0.44
		c0.89-0.67,1.07-2.19,1.07-4.76C663.79,51.61,663.7,50.1,663.09,49.29 M664.12,59.05c-0.63,0.61-1.59,0.96-3.05,0.96h-3.1V47.35
		h3.1c1.32,0,2.22,0.26,2.86,0.73c1.23,0.91,1.42,2.37,1.42,5.4C665.35,56.27,665.17,58.05,664.12,59.05"/>
	<path class="st15" d="M667.42,51.19h1.38v8.83h-1.38V51.19z M667.35,47.52h1.52v1.51h-1.52V47.52z"/>
	<path class="st15" d="M673.74,52.03c-1.63,0-1.65,2.07-1.65,3.66c0,1.46,0.04,3.26,1.56,3.26c1.82,0,1.77-2.3,1.77-3.63
		C675.42,53.85,675.33,52.03,673.74,52.03 M676.81,52.66v7.74c0,2.17-0.96,3.08-3.15,3.08c-1.81,0-2.75-0.77-2.77-2.56h1.47
		c0,0.95,0.32,1.61,1.37,1.61c1.47,0,1.66-1.03,1.66-2.45v-1.21c-0.54,0.75-1.14,1.03-2.05,1.03c-2.47,0-2.66-2.26-2.66-4.22
		c0-2.24,0.28-4.69,2.68-4.69c1.07,0,1.66,0.37,2.12,1.23v-1.03h1.38C676.86,51.66,676.81,52.17,676.81,52.66"/>
	<path class="st15" d="M679.02,51.19h1.38v8.83h-1.38V51.19z M678.94,47.52h1.52v1.51h-1.52V47.52z"/>
	<path class="st15" d="M685.02,60.1c-1.66,0-2-0.65-2-2.19V52.2h-1.32v-1.02h1.32v-1.63l1.38-0.61v2.24h1.58v1.02h-1.58v5.55
		c0,1,0.24,1.24,1,1.24c0.19,0,0.4-0.04,0.63-0.07v1.09C685.71,60.07,685.36,60.1,685.02,60.1"/>
	<path class="st15" d="M691.4,55.55h-0.35c-1.39,0-2.77,0.26-2.77,1.89c0,0.86,0.32,1.7,1.3,1.7c1.45,0,1.82-1.4,1.82-2.54V55.55z
		 M691.51,60.02l-0.02-1.16c-0.61,0.89-1.26,1.31-2.36,1.31c-1.58,0-2.28-1.16-2.28-2.61c0-2.79,2.31-2.96,4.56-2.98V54.2
		c0-1.05,0-2.21-1.37-2.21c-0.8,0-1.47,0.45-1.47,1.33v0.09h-1.39v-0.09c0-1.72,1.35-2.33,2.91-2.33c2.1,0,2.68,0.96,2.68,2.94v3.26
		c0,0.95,0.02,1.87,0.09,2.82H691.51z"/>
	<rect x="694.96" y="47.35" class="st15" width="1.38" height="12.67"/>
	<path class="st15" d="M705.52,60.26c-2.54,0-3.54-1.19-3.54-3.66v-0.14h1.54v0.14c0,1.4,0.35,2.47,2,2.47
		c1.37,0,1.93-0.79,1.93-2.05c0-1.58-1.03-2.05-2.19-2.75c-1.73-1.07-3.1-1.79-3.1-4c0-2.12,1.44-3.17,3.45-3.17
		c2.08,0,3.28,0.91,3.28,3.07v0.42h-1.51v-0.3c0-1.19-0.35-2-1.82-2c-1.17,0-1.86,0.72-1.86,1.89c0,1.68,1.32,2.12,2.61,2.96
		c1.49,0.95,2.68,1.51,2.68,3.77C708.99,59.16,707.61,60.26,705.52,60.26"/>
	<path class="st15" d="M715.4,60.02l-0.02-1.12c-0.51,0.82-1.23,1.28-2.22,1.28c-1.73,0-2.36-1.1-2.36-2.73v-6.26h1.38v5.64
		c0,1.03,0.02,2.3,1.4,2.3c1.49,0,1.73-1.38,1.73-2.58v-5.36h1.4v6.89c0,0.66,0.02,1.29,0.07,1.94H715.4z"/>
	<path class="st15" d="M722.32,52.31c-1.39,0-2,0.95-2,2.24v5.47h-1.4V52.8c0-0.4-0.02-1.22-0.05-1.61h1.37v1.16
		c0.47-0.88,1.24-1.33,2.24-1.33h0.14v1.33C722.51,52.33,722.43,52.31,722.32,52.31"/>
	<path class="st15" d="M727.28,52.31c-1.38,0-2,0.95-2,2.24v5.47h-1.4V52.8c0-0.4-0.02-1.22-0.05-1.61h1.37v1.16
		c0.47-0.88,1.24-1.33,2.24-1.33h0.14v1.33C727.47,52.33,727.38,52.31,727.28,52.31"/>
	<path class="st15" d="M733,55.15c0-1.33,0.07-3.15-1.59-3.15c-1.75,0-1.7,1.96-1.7,3.19v1.26c0,1.19,0.02,2.75,1.65,2.75
		c1.54,0,1.65-1.49,1.65-2.7V55.15z M731.34,60.21c-2.77,0-3.05-1.82-3.05-4.54c0-2.54,0.33-4.68,3.15-4.68
		c2.79,0,2.99,1.87,2.99,4.56C734.44,58.46,734,60.21,731.34,60.21"/>
	<path class="st15" d="M740.92,60.02l-0.02-1.12c-0.51,0.82-1.23,1.28-2.23,1.28c-1.73,0-2.37-1.1-2.37-2.73v-6.26h1.38v5.64
		c0,1.03,0.02,2.3,1.4,2.3c1.49,0,1.73-1.38,1.73-2.58v-5.36h1.4v6.89c0,0.66,0.02,1.29,0.07,1.94H740.92z"/>
	<path class="st15" d="M749,60.02v-5.64c0-1.07,0.02-2.33-1.37-2.33c-1.3,0-1.79,1.47-1.79,2.66v5.31h-1.39v-6.9
		c0-0.65-0.02-1.28-0.07-1.93h1.37v1.21c0.38-0.73,1.17-1.4,2.3-1.4c1.77,0,2.33,1.09,2.33,2.75v6.27H749z"/>
	<path class="st15" d="M755.32,52.01c-1.56,0-1.65,1.93-1.65,3.5c0,1.94,0.21,3.63,1.59,3.63c1.66,0,1.73-1.8,1.73-3.45
		C757,53.73,756.88,52.01,755.32,52.01 M757.07,60.02L757.06,59c-0.53,0.8-1.1,1.17-2.07,1.17c-2.54,0-2.73-2.54-2.73-4.69
		c0-2.17,0.35-4.49,2.7-4.49c1.02,0,1.56,0.35,2,1.03v-4.68h1.4v11c0,0.42,0.05,1.24,0.07,1.66H757.07z"/>
</g>
<g>
	<path class="st18" d="M447.54,47.4c-5.22,3.87-12.79,5.94-19.32,5.94c-9.13,0-17.36-3.38-23.58-9.05
		c-0.49-0.45-0.05-1.05,0.54-0.71c6.71,3.93,15.02,6.29,23.6,6.29c5.79,0,12.15-1.21,18-3.71C447.67,45.81,448.4,46.77,447.54,47.4"
		/>
	<path class="st18" d="M449.72,44.91c-0.67-0.86-4.42-0.41-6.1-0.2c-0.52,0.05-0.6-0.39-0.14-0.71c2.99-2.11,7.88-1.51,8.45-0.79
		c0.57,0.71-0.15,5.64-2.95,8.01c-0.43,0.37-0.84,0.16-0.65-0.31C448.97,49.32,450.39,45.77,449.72,44.91"/>
	<path class="st19" d="M443.74,29.09v-2.05c0-0.31,0.23-0.52,0.52-0.52h9.15c0.29,0,0.53,0.22,0.53,0.52v1.75
		c0,0.3-0.24,0.68-0.69,1.29l-4.73,6.8c1.77-0.04,3.62,0.22,5.21,1.13c0.37,0.2,0.46,0.5,0.49,0.8V41c0,0.3-0.33,0.65-0.68,0.46
		c-2.81-1.48-6.55-1.64-9.66,0.01c-0.31,0.18-0.65-0.16-0.65-0.48v-2.07c0-0.33,0-0.9,0.34-1.4l5.49-7.91h-4.77
		C443.97,29.61,443.74,29.4,443.74,29.09 M410.38,41.89h-2.79c-0.26-0.01-0.48-0.22-0.5-0.46V27.08c0-0.29,0.23-0.52,0.53-0.52h2.6
		c0.27,0.01,0.49,0.22,0.5,0.48v1.88h0.05c0.68-1.81,1.94-2.65,3.66-2.65c1.74,0,2.83,0.84,3.62,2.65c0.68-1.81,2.2-2.65,3.85-2.65
		c1.17,0,2.45,0.48,3.22,1.58c0.88,1.21,0.71,2.95,0.71,4.5l-0.01,9.05c0,0.29-0.23,0.52-0.53,0.52h-2.77
		c-0.27-0.01-0.49-0.24-0.49-0.52v-7.6c0-0.61,0.05-2.12-0.08-2.69c-0.2-0.97-0.83-1.24-1.63-1.24c-0.68,0-1.37,0.45-1.66,1.18
		c-0.29,0.72-0.26,1.93-0.26,2.75v7.58c0,0.29-0.24,0.52-0.54,0.52h-2.77c-0.29-0.01-0.5-0.24-0.5-0.52v-7.6
		c0-1.6,0.26-3.96-1.71-3.96c-2,0-1.92,2.3-1.92,3.96v7.6C410.93,41.68,410.68,41.89,410.38,41.89 M461.82,29.18
		c-2.05,0-2.17,2.81-2.17,4.57c0,1.75-0.03,5.49,2.15,5.49c2.15,0,2.26-3.02,2.26-4.87c0-1.21-0.05-2.66-0.41-3.81
		C463.33,29.58,462.7,29.18,461.82,29.18 M461.79,26.26c4.12,0,6.36,3.56,6.36,8.09c0,4.38-2.46,7.86-6.36,7.86
		c-4.05,0-6.25-3.56-6.25-7.99C455.54,29.73,457.77,26.26,461.79,26.26 M473.51,41.89h-2.77c-0.29-0.01-0.5-0.24-0.5-0.52V27.02
		c0.03-0.26,0.26-0.46,0.53-0.46h2.58c0.24,0.01,0.45,0.18,0.5,0.39v2.2h0.05c0.77-1.97,1.86-2.9,3.79-2.9
		c1.24,0,2.47,0.45,3.25,1.69c0.73,1.16,0.73,3.09,0.73,4.47v9.03c-0.03,0.26-0.26,0.45-0.53,0.45h-2.79
		c-0.26-0.01-0.46-0.2-0.49-0.45v-7.79c0-1.58,0.19-3.86-1.74-3.86c-0.68,0-1.3,0.46-1.6,1.14c-0.39,0.88-0.43,1.75-0.43,2.72v7.72
		C474.05,41.68,473.81,41.89,473.51,41.89 M441.4,39.26c-0.5-0.71-1.05-1.28-1.05-2.6v-4.35c0-1.85,0.14-3.53-1.22-4.81
		c-1.07-1.02-2.84-1.39-4.2-1.39c-2.64,0-5.59,1.01-6.21,4.28c-0.07,0.37,0.19,0.54,0.42,0.6l2.69,0.29
		c0.24-0.01,0.43-0.26,0.48-0.52c0.24-1.13,1.18-1.67,2.24-1.67c0.57,0,1.22,0.2,1.56,0.72c0.39,0.57,0.34,1.36,0.34,2.03v0.37
		c-1.62,0.18-3.72,0.3-5.23,0.97c-1.74,0.76-2.96,2.3-2.96,4.57c0,2.91,1.82,4.36,4.16,4.36c1.98,0,3.07-0.48,4.59-2.04
		c0.5,0.73,0.67,1.09,1.59,1.86c0.2,0.11,0.48,0.11,0.65-0.07c0.56-0.48,1.56-1.37,2.15-1.85C441.62,39.81,441.58,39.51,441.4,39.26
		L441.4,39.26z M435.94,38.01c-0.45,0.79-1.14,1.26-1.92,1.26c-1.07,0-1.7-0.82-1.7-2.03c0-2.38,2.12-2.81,4.13-2.81v0.61
		C436.45,36.13,436.48,37.04,435.94,38.01L435.94,38.01z M404.95,39.26c-0.5-0.71-1.05-1.28-1.05-2.6v-4.35
		c0-1.85,0.14-3.53-1.22-4.81c-1.06-1.02-2.83-1.39-4.19-1.39c-2.65,0-5.6,1.01-6.23,4.28c-0.07,0.37,0.19,0.54,0.41,0.6l2.7,0.29
		c0.24-0.01,0.42-0.26,0.48-0.52c0.23-1.13,1.18-1.67,2.24-1.67c0.57,0,1.22,0.2,1.56,0.72c0.39,0.57,0.34,1.36,0.34,2.03v0.37
		c-1.62,0.18-3.72,0.3-5.23,0.97c-1.74,0.76-2.97,2.3-2.97,4.57c0,2.91,1.82,4.36,4.16,4.36c1.98,0,3.07-0.48,4.59-2.04
		c0.5,0.73,0.67,1.09,1.59,1.86c0.2,0.11,0.48,0.11,0.65-0.07c0.56-0.48,1.56-1.37,2.15-1.85
		C405.16,39.81,405.12,39.51,404.95,39.26L404.95,39.26z M399.47,38.01c-0.45,0.79-1.14,1.26-1.93,1.26c-1.07,0-1.69-0.82-1.69-2.03
		c0-2.38,2.12-2.81,4.13-2.81v0.61C399.98,36.13,400.01,37.04,399.47,38.01L399.47,38.01z M519.82,38.89
		c0.03-0.07,0.12-0.12,0.19-0.12s0.16,0.03,0.26,0.07c1.39,0.69,2.79,1.06,3.86,1.06c1.52,0,2.53-0.91,2.53-2.26
		c0-1.06-0.54-1.69-2.03-2.38c-2.12-0.97-2.79-1.32-3.55-1.94c-0.98-0.76-1.45-1.73-1.45-2.95c0-2.53,2-4.35,4.81-4.35
		c1.64,0,4.08,0.79,4.08,1.32c0,0.07,0,0.07-0.07,0.22l-0.57,1.16c-0.07,0.1-0.19,0.19-0.29,0.19c-0.07,0-0.12-0.03-0.26-0.07
		c-1.2-0.56-2.12-0.82-2.98-0.82c-1.52,0-2.41,0.77-2.41,2.09c0,0.6,0.22,1.16,0.63,1.54c0.45,0.41,0.45,0.41,3.32,1.78
		c2.34,1.13,3.17,2.16,3.17,4.04c0,2.65-2.03,4.44-5.03,4.44c-1.58,0-3.38-0.48-4.68-1.22c-0.16-0.1-0.19-0.15-0.19-0.29
		c0-0.07,0-0.07,0.03-0.12L519.82,38.89L519.82,38.89z M531.74,27.1c0-0.31,0.03-0.38,0.35-0.38h1.67c0.29,0,0.35,0.07,0.35,0.38
		v14.25c0,0.31-0.26,0.54-0.54,0.54h-1.33c-0.29,0-0.49-0.24-0.49-0.57L531.74,27.1L531.74,27.1z M547,29.48
		c-0.1,0.16-0.16,0.22-0.26,0.22c-0.07,0-0.16-0.03-0.26-0.12c-1.55-1.14-2.17-1.43-3.26-1.43c-2.53,0-3.82,2-3.82,5.89
		c0,3.96,1.17,5.91,3.51,5.91c1.26,0,1.93-0.29,3.72-1.55c0.1-0.07,0.16-0.1,0.22-0.1c0.1,0,0.16,0.07,0.22,0.19l0.48,1.2
		c0.03,0.1,0.1,0.29,0.1,0.31c0,0.16-0.16,0.35-0.5,0.6c-1.29,0.95-2.88,1.48-4.43,1.48c-3.77,0-5.97-2.88-5.97-7.68
		c0-5.18,2.43-8.37,6.42-8.37c1.36,0,2.69,0.41,3.86,1.24c0.5,0.35,0.69,0.57,0.69,0.79l-0.03,0.19L547,29.48L547,29.48z
		 M503.41,31.09c0-1.79,0-4.83-4.06-4.83c-1.59,0-2.96,1.07-3.66,2.42c-0.49-1.74-1.56-2.42-3.34-2.42c-1.47,0-3.03,0.76-3.7,2.11
		v-1.24c0-0.27-0.22-0.5-0.5-0.52h-1.41c-0.29,0-0.5,0.2-0.53,0.46v14.29c0,0.27,0.22,0.49,0.5,0.52h1.4c0.29,0,0.52-0.2,0.53-0.46
		V31.3v0.08c0-2.39,1.77-3.07,2.88-3.07c1.7,0,2.01,1.39,2.07,2.51v10.64c0.05,0.23,0.27,0.41,0.56,0.43h1.36
		c0.27,0,0.5-0.18,0.53-0.38V31.32c0.04-2.32,1.77-3,2.88-3c1.74,0,2.03,1.44,2.07,2.6v10.56c0,0.2,0.19,0.37,0.42,0.41v0.01h1.48
		c0.29,0,0.5-0.16,0.53-0.38L503.41,31.09L503.41,31.09z M506.58,39.64c0.3,0.79,1.44,2.42,3.75,2.42c2.16,0,3.43-0.76,4.08-2.11
		v1.24c0,0.27,0.22,0.5,0.49,0.52h1.37c0.27,0,0.5-0.2,0.53-0.46v-14.3c0-0.27-0.22-0.5-0.5-0.52h-1.37c-0.27,0-0.5,0.2-0.53,0.46
		V37v-0.08c0,2.39-2.64,3.07-3.74,3.07c-1.67,0-1.97-1.39-2.03-2.51V26.83c-0.05-0.23-0.27-0.41-0.54-0.42h-1.33
		c-0.27,0-0.5,0.18-0.52,0.38V37C506.24,37,506.29,38.84,506.58,39.64 M533.76,20.36h-1.67c-0.31,0-0.35,0.05-0.35,0.34v1.69
		c0,0.29,0.07,0.34,0.35,0.34h1.67c0.31,0,0.35-0.05,0.35-0.34v-1.67C534.12,20.43,534.05,20.36,533.76,20.36"/>
</g>
<g>
	<path d="M18.07,38.35l0.02-13.01c0-1.99,0.93-3.12,3.25-3.22c2.75-0.12,3.23,1.2,3.23,3.64v12.59h3.96V25.07
		c0-3.73-2.5-5.94-6.28-5.94c-2.34,0-3.78,0.67-5.24,2.09l-0.05,0c-2.3-2.82-6.11-2.43-8.94-1.02c-0.67,0.33-1.17,0.34-2.01,0.17
		c-1.04-0.2-1.87-0.36-1.87-0.36v18.34h3.62L7.72,25.34c0-1.99,0.94-3.12,3.25-3.22c2.75-0.12,3.24,1.2,3.24,3.64v12.59H18.07z"/>
	<path d="M67.76,23.41c-0.97,0-1.76,0.79-1.76,1.76v13.18h3.52V25.17C69.52,24.2,68.73,23.41,67.76,23.41"/>
	<path d="M119.71,35.88c0.7,1.96,2.27,2.46,3.93,2.5c2.59,0.05,4.63,0.05,7.66,0.03c6.58-0.03,9.22-1.24,9.22-3.97
		c0-2.17-2.12-3.27-7.04-4.54c-1.68-0.43-3-0.94-3.58-1.29c-0.57-0.33-0.86-0.79-0.86-1.34c0-1.3,1.58-1.88,3.56-1.97
		c2.05-0.08,5.06-0.06,5.06-0.06h7.86v13.1h3.67V25.47h6.56l1.56-2.23h-21.51c-2.78,0-6.37-0.04-8.59,1.26
		c-1.35,0.79-2.01,1.92-2.01,3.05c0,1.09,0.62,2.02,1.88,2.79c0.85,0.52,1.83,0.73,3.71,1.29c2.86,0.86,5.19,1.26,5.35,2.61
		c0.2,1.77-2.1,2.23-5.15,2.27c-2.84,0.03-4.27,0.04-5.84,0c-1.44-0.03-1.9-0.6-1.94-2.34c-0.04-1.58,0-10.59,0-10.59
		s-0.98,0.14-1.93,0.27c-0.97,0.13-1.22,0.12-2.18-0.18c-2.8-0.86-4.32-0.76-6.05-0.39c-3.62,0.78-6.99,4.02-6.99,7.98
		c0,5.5,4.24,7.36,7.63,7.28c2.32-0.05,4.16-0.53,5.92-2.67C119.67,35.82,119.7,35.84,119.71,35.88 M119.65,33.01
		c-0.19,0.37-1.32,2.48-4.29,3.01c-1.22,0.22-3.15,0.08-4.41-0.82c-2.22-1.59-2.42-5.94,0.53-8.42c1.16-0.99,2.64-1.52,4.5-1.52
		c1.06,0,2.75,0.27,3.63,0.75c0.04,0.02,0.06,0.07,0.06,0.13c0,0.06,0.01,6.04,0.01,6.72C119.67,32.91,119.67,32.96,119.65,33.01"/>
	<path d="M56.01,29.71c-1.68-0.45-2.62-0.85-3.2-1.19c-0.58-0.35-0.78-0.82-0.78-1.38c0-1,1.03-1.76,3.58-1.91
		c2.18-0.13,4.75,0.36,6.2,0.76l1.25-1.65c-1.75-0.63-5.3-1.21-7.69-1.1c-2.33,0.11-4,0.52-5.07,1.13c-1.36,0.78-2.1,1.85-2.1,3.13
		c0,1.09,0.62,2.01,1.88,2.78c0.85,0.52,1.81,0.73,3.7,1.27c1.11,0.32,2.09,0.63,2.8,0.83c1.33,0.39,2.66,1.03,2.58,2.01
		c-0.12,1.5-1.78,1.96-4.96,2.04c-2.54,0.07-4.01,0.08-5.45,0.02c-1.7-0.07-2.55-0.2-2.55-2.31V24.12h-3.5c0,0-0.03,6.29-0.03,8.18
		c0,2.17-0.51,3.96-4.25,3.96c-3.68,0-4.02-1.8-4.02-4.08c0-1.44,0.02-8.07,0.02-8.07H31v7.87c0,3.46,1.18,6.53,7.13,6.53
		c1.73,0,3.7-0.43,4.91-2.14c0.03-0.05,0.05-0.03,0.07,0c0.43,0.99,1.38,1.83,2.81,1.91c1.92,0.1,4.17,0.08,8.36,0.06
		c4.89-0.03,9.36-0.52,9.26-4.07c-0.04-1.39-1.08-2.45-3.22-3.27C58.73,30.42,57.95,30.23,56.01,29.71"/>
	<path d="M99.04,35.92c-2.85-0.07-7.84-1.57-7.84-7.41c0-5.36,6.09-6.93,8.62-6.84c2.12,0.08,3.79,0.54,5.19,1.22l1.51-1.76
		c-1.76-1.02-4.21-1.99-7.83-1.94c-4.61,0.08-11.14,3.05-11.14,9.67c0,6.79,5.89,9.28,9.74,9.62c3.95,0.35,7-0.65,8.72-1.65
		c-0.36-0.62-0.71-1.26-1.09-1.95C103.25,35.6,101.3,35.98,99.04,35.92"/>
	<path d="M67.76,14.4c2.73,0,5.22,1,7.14,2.66c0.34,0.3,0.86,0.29,1.18-0.04c0.36-0.36,0.34-0.94-0.04-1.27
		c-2.22-1.92-5.12-3.09-8.28-3.09c-3.16,0-6.06,1.16-8.28,3.09c-0.38,0.33-0.4,0.91-0.04,1.27c0.32,0.32,0.84,0.34,1.18,0.04
		C62.53,15.4,65.03,14.4,67.76,14.4"/>
	<path d="M67.76,17.87c1.77,0,3.4,0.62,4.69,1.66c0.35,0.28,0.85,0.27,1.17-0.05c0.36-0.36,0.34-0.96-0.06-1.28
		c-1.58-1.29-3.61-2.07-5.81-2.07c-2.2,0-4.22,0.78-5.81,2.07c-0.39,0.32-0.41,0.92-0.05,1.28c0.32,0.32,0.82,0.33,1.18,0.05
		C64.35,18.49,65.99,17.87,67.76,17.87"/>
	<path d="M67.76,21.35c0.84,0,1.63,0.27,2.28,0.71c0.33,0.25,0.8,0.19,1.1-0.1c0.38-0.38,0.33-1.01-0.11-1.32
		c-0.92-0.65-2.06-1.03-3.27-1.03c-1.22,0-2.35,0.38-3.28,1.03c-0.43,0.31-0.47,0.95-0.1,1.32h0c0.29,0.29,0.76,0.35,1.1,0.1
		C66.12,21.62,66.91,21.35,67.76,21.35"/>
	<path d="M82.04,36.2c-2.11,0.11-6.94-0.73-7-5.37c-0.08-4.88,4.37-5.86,6.21-6.05c2.24-0.23,4.54,0.45,4.54,0.45l1.11-1.56
		c0,0-2.85-1.13-6.61-0.86c-3.06,0.22-8.36,2.07-8.36,8.09c0,4.75,4.05,6.8,6.66,7.36c5.51,1.19,10.05-2.13,10.05-2.13l-1.18-1.63
		C87.44,34.5,85.37,36.04,82.04,36.2"/>
	<path d="M127.75,52.16c0-0.29-0.08-0.52-0.23-0.7c-0.15-0.18-0.37-0.29-0.65-0.33c-0.14-0.02-0.55-0.03-1.25-0.03h-1.35v2.16h1.27
		c0.83,0,1.34-0.03,1.55-0.1c0.21-0.07,0.37-0.19,0.48-0.36C127.7,52.63,127.75,52.41,127.75,52.16"/>
	<path d="M142.89,50.98c-0.71,0-1.28,0.25-1.71,0.73c-0.44,0.49-0.65,1.23-0.65,2.2c0,0.96,0.22,1.7,0.67,2.2
		c0.45,0.5,1.01,0.74,1.7,0.74c0.69,0,1.25-0.25,1.69-0.74c0.44-0.5,0.66-1.24,0.66-2.23c0-0.98-0.21-1.7-0.64-2.18
		C144.17,51.22,143.6,50.98,142.89,50.98"/>
	<path d="M150.27,46.93h-12.92h-1.67l-41.24,0l-8.12,14.11l42.91,0h1.67h19.38c3.9,0,7.05-3.16,7.05-7.05
		C157.32,50.09,154.17,46.93,150.27,46.93 M105.47,57.07c-0.27,0.43-0.66,0.75-1.15,0.96c-0.5,0.2-1.11,0.31-1.86,0.31
		c-1.08,0-1.9-0.25-2.48-0.75c-0.58-0.5-0.92-1.22-1.03-2.18l1.68-0.16c0.1,0.56,0.3,0.98,0.61,1.24c0.31,0.27,0.73,0.4,1.25,0.4
		c0.56,0,0.97-0.12,1.25-0.35c0.28-0.24,0.42-0.51,0.42-0.82c0-0.2-0.06-0.38-0.18-0.52c-0.12-0.14-0.33-0.27-0.62-0.37
		c-0.2-0.07-0.66-0.19-1.38-0.37c-0.92-0.23-1.57-0.51-1.94-0.84c-0.52-0.47-0.78-1.04-0.78-1.71c0-0.44,0.12-0.84,0.37-1.22
		c0.24-0.38,0.6-0.67,1.07-0.87c0.46-0.19,1.02-0.3,1.67-0.3c1.07,0,1.88,0.23,2.42,0.7c0.54,0.47,0.83,1.1,0.85,1.88l-1.72,0.07
		c-0.08-0.44-0.23-0.75-0.48-0.94c-0.24-0.19-0.6-0.29-1.09-0.29c-0.5,0-0.89,0.1-1.17,0.31c-0.18,0.13-0.27,0.31-0.27,0.53
		c0,0.2,0.08,0.38,0.26,0.52c0.22,0.18,0.74,0.37,1.58,0.57c0.84,0.2,1.46,0.4,1.86,0.62c0.4,0.21,0.71,0.5,0.94,0.87
		c0.23,0.36,0.34,0.81,0.34,1.36C105.88,56.19,105.74,56.64,105.47,57.07 M113.49,51.1h-2.53v7.08h-1.72V51.1h-2.53v-1.45h6.78V51.1
		z M121.09,58.18h-6.49v-8.53h6.32v1.45h-4.6v1.89h4.28v1.44h-4.28v2.32h4.76V58.18z M128.16,58.18l-1.25-1.85
		c-0.44-0.66-0.74-1.09-0.9-1.26c-0.17-0.18-0.34-0.29-0.52-0.36c-0.18-0.07-0.47-0.1-0.87-0.1h-0.35v3.56h-1.72v-8.53h3.62
		c0.91,0,1.57,0.08,1.99,0.23c0.41,0.15,0.74,0.42,0.99,0.81c0.25,0.4,0.37,0.84,0.37,1.35c0,0.64-0.19,1.17-0.57,1.59
		c-0.37,0.41-0.94,0.68-1.68,0.79c0.37,0.22,0.68,0.46,0.92,0.72c0.24,0.25,0.56,0.72,0.98,1.38l1.04,1.67H128.16z M137.64,58.18
		h-6.49v-8.53h6.32v1.45h-4.6v1.89h4.28v1.44h-4.28v2.32h4.76V58.18z M145.89,57.16c-0.75,0.78-1.75,1.17-3,1.17
		c-1.27,0-2.28-0.39-3.03-1.16c-0.75-0.77-1.12-1.84-1.12-3.2c0-0.87,0.13-1.6,0.39-2.19c0.19-0.43,0.46-0.82,0.79-1.17
		c0.33-0.35,0.7-0.6,1.1-0.77c0.53-0.22,1.14-0.34,1.84-0.34c1.25,0,2.26,0.39,3.01,1.17c0.76,0.78,1.13,1.86,1.13,3.25
		C147.01,55.31,146.64,56.39,145.89,57.16"/>
	<path d="M63.38,46.93h-1.68H8.47c-3.9,0-7.05,3.16-7.05,7.06c0,3.89,3.16,7.05,7.05,7.05h46.79h1.67h26.52l8.12-14.11L63.38,46.93z
		 M17.77,57.07c-0.27,0.43-0.65,0.74-1.15,0.95c-0.5,0.21-1.12,0.31-1.86,0.31c-1.08,0-1.91-0.25-2.48-0.75
		c-0.58-0.5-0.93-1.22-1.03-2.18l1.67-0.16c0.1,0.56,0.31,0.97,0.61,1.23c0.31,0.26,0.73,0.4,1.25,0.4c0.56,0,0.97-0.12,1.26-0.35
		c0.28-0.24,0.42-0.51,0.42-0.82c0-0.2-0.06-0.37-0.17-0.51c-0.12-0.14-0.33-0.27-0.62-0.37c-0.2-0.07-0.66-0.19-1.38-0.37
		c-0.92-0.23-1.57-0.51-1.94-0.84c-0.52-0.47-0.78-1.04-0.78-1.72c0-0.43,0.12-0.84,0.37-1.22c0.25-0.38,0.6-0.66,1.07-0.86
		c0.46-0.2,1.02-0.3,1.68-0.3c1.07,0,1.87,0.24,2.42,0.71c0.54,0.47,0.82,1.09,0.85,1.87l-1.72,0.08c-0.07-0.43-0.23-0.75-0.47-0.94
		c-0.24-0.2-0.61-0.29-1.09-0.29c-0.5,0-0.9,0.1-1.17,0.31c-0.19,0.13-0.28,0.31-0.28,0.53c0,0.2,0.08,0.37,0.26,0.52
		c0.22,0.18,0.74,0.38,1.58,0.57c0.84,0.2,1.46,0.4,1.86,0.61c0.4,0.21,0.72,0.5,0.94,0.86c0.23,0.37,0.34,0.82,0.34,1.36
		C18.18,56.19,18.04,56.64,17.77,57.07 M26.41,54.13c0,1.03-0.04,1.75-0.14,2.17c-0.09,0.42-0.26,0.78-0.51,1.07
		c-0.25,0.29-0.58,0.52-1,0.7c-0.42,0.17-0.97,0.26-1.64,0.26c-0.82,0-1.43-0.09-1.85-0.28c-0.42-0.19-0.76-0.43-1-0.73
		c-0.25-0.3-0.4-0.61-0.48-0.95c-0.11-0.49-0.17-1.21-0.17-2.16v-4.55h1.72v4.62c0,0.73,0.02,1.21,0.07,1.42
		c0.07,0.35,0.25,0.63,0.52,0.84c0.28,0.21,0.66,0.32,1.14,0.32c0.49,0,0.85-0.1,1.1-0.3c0.25-0.2,0.39-0.44,0.44-0.73
		c0.05-0.29,0.08-0.77,0.08-1.45v-4.72h1.72V54.13z M33.84,58.18l-1.24-1.86c-0.44-0.66-0.75-1.08-0.91-1.26
		c-0.16-0.17-0.34-0.29-0.52-0.35c-0.18-0.07-0.47-0.1-0.86-0.1h-0.35v3.56h-1.72v-8.53h3.62c0.91,0,1.57,0.08,1.99,0.23
		c0.41,0.15,0.74,0.42,0.99,0.82c0.25,0.39,0.37,0.84,0.37,1.35c0,0.64-0.19,1.17-0.56,1.58c-0.37,0.42-0.94,0.68-1.69,0.79
		c0.37,0.22,0.68,0.46,0.92,0.72c0.24,0.26,0.57,0.72,0.98,1.38l1.04,1.67H33.84z M42.44,58.18l-1.24-1.86
		c-0.44-0.66-0.75-1.08-0.91-1.26c-0.16-0.17-0.34-0.29-0.52-0.35c-0.18-0.07-0.47-0.1-0.86-0.1h-0.35v3.56h-1.72v-8.53h3.62
		c0.91,0,1.57,0.08,1.99,0.23c0.42,0.15,0.74,0.42,0.99,0.82c0.25,0.39,0.37,0.84,0.37,1.35c0,0.64-0.19,1.17-0.56,1.58
		c-0.38,0.42-0.94,0.68-1.69,0.79c0.37,0.22,0.68,0.46,0.92,0.72c0.25,0.26,0.57,0.72,0.98,1.38l1.04,1.67H42.44z M52.23,57.16
		c-0.75,0.78-1.75,1.17-3,1.17c-1.26,0-2.28-0.39-3.02-1.16c-0.75-0.78-1.12-1.84-1.12-3.2c0-0.87,0.13-1.6,0.39-2.19
		c0.19-0.43,0.46-0.83,0.79-1.17c0.33-0.34,0.71-0.6,1.1-0.77c0.53-0.22,1.14-0.34,1.83-0.34c1.26,0,2.27,0.39,3.02,1.17
		c0.75,0.78,1.13,1.86,1.13,3.25C53.35,55.31,52.98,56.38,52.23,57.16 M61.49,54.13c0,1.03-0.05,1.75-0.14,2.17
		c-0.09,0.42-0.26,0.78-0.52,1.07c-0.25,0.29-0.58,0.52-1,0.7c-0.42,0.17-0.97,0.26-1.64,0.26c-0.81,0-1.43-0.09-1.85-0.28
		c-0.42-0.19-0.75-0.43-1-0.73c-0.24-0.3-0.41-0.61-0.48-0.95c-0.11-0.49-0.17-1.21-0.17-2.16v-4.55h1.72v4.62
		c0,0.73,0.02,1.21,0.06,1.42c0.07,0.35,0.25,0.63,0.53,0.84c0.27,0.21,0.65,0.32,1.14,0.32c0.49,0,0.86-0.1,1.1-0.3
		c0.25-0.2,0.4-0.44,0.45-0.73c0.05-0.29,0.07-0.77,0.07-1.45v-4.72h1.72V54.13z M70.08,58.18h-1.73l-3.44-5.56v5.56h-1.6v-8.53
		h1.68l3.49,5.7v-5.7h1.6V58.18z M78.78,55.81c-0.21,0.62-0.52,1.12-0.91,1.51c-0.3,0.29-0.71,0.52-1.21,0.68
		c-0.38,0.12-0.89,0.18-1.52,0.18h-3.24v-8.53h3.15c0.71,0,1.25,0.06,1.62,0.17c0.5,0.14,0.93,0.41,1.28,0.78
		c0.36,0.38,0.63,0.84,0.82,1.38c0.18,0.54,0.28,1.21,0.28,2.01C79.05,54.7,78.96,55.31,78.78,55.81"/>
	<path d="M49.23,50.98c-0.71,0-1.28,0.25-1.72,0.73c-0.44,0.49-0.65,1.22-0.65,2.2c0,0.96,0.22,1.7,0.67,2.2
		c0.45,0.5,1.01,0.74,1.7,0.74c0.69,0,1.25-0.25,1.69-0.74c0.44-0.5,0.66-1.24,0.66-2.23c0-0.98-0.22-1.7-0.64-2.19
		C50.5,51.22,49.94,50.98,49.23,50.98"/>
	<path d="M33.43,52.16c0-0.29-0.08-0.52-0.23-0.7c-0.15-0.18-0.37-0.29-0.65-0.33C32.42,51.11,32,51.1,31.3,51.1h-1.34v2.17h1.27
		c0.83,0,1.34-0.03,1.55-0.11c0.21-0.07,0.37-0.19,0.48-0.36C33.38,52.63,33.43,52.41,33.43,52.16"/>
	<path d="M42.04,52.16c0-0.29-0.08-0.52-0.23-0.7c-0.15-0.18-0.37-0.29-0.65-0.33c-0.14-0.02-0.56-0.03-1.26-0.03h-1.34v2.17h1.27
		c0.83,0,1.34-0.03,1.55-0.11c0.21-0.07,0.37-0.19,0.48-0.36C41.98,52.63,42.04,52.41,42.04,52.16"/>
	<path d="M76.6,51.58c-0.21-0.19-0.47-0.33-0.8-0.4c-0.24-0.06-0.71-0.08-1.41-0.08h-0.77v5.65h1.28c0.48,0,0.83-0.03,1.04-0.08
		c0.28-0.07,0.51-0.19,0.69-0.35c0.19-0.17,0.33-0.44,0.45-0.82c0.12-0.39,0.17-0.91,0.17-1.57c0-0.66-0.06-1.17-0.17-1.51
		C76.97,52.05,76.81,51.78,76.6,51.58"/>
</g>
</svg>
