<?xml version="1.0" encoding="UTF-8" standalone="no"?>
<!-- Created with Inkscape (http://www.inkscape.org/) -->

<svg
   xmlns:dc="http://purl.org/dc/elements/1.1/"
   xmlns:cc="http://creativecommons.org/ns#"
   xmlns:rdf="http://www.w3.org/1999/02/22-rdf-syntax-ns#"
   xmlns:svg="http://www.w3.org/2000/svg"
   xmlns="http://www.w3.org/2000/svg"
   xmlns:sodipodi="http://sodipodi.sourceforge.net/DTD/sodipodi-0.dtd"
   xmlns:inkscape="http://www.inkscape.org/namespaces/inkscape"
   width="251.12103mm"
   height="251.12103mm"
   viewBox="0 0 251.12103 251.12103"
   version="1.1"
   id="svg5374"
   inkscape:version="0.92.4 (f8dce91, 2019-08-02)"
   sodipodi:docname="icon better.svg">
  <defs
     id="defs5368" />
  <sodipodi:namedview
     id="base"
     pagecolor="#ffffff"
     bordercolor="#666666"
     borderopacity="1.0"
     inkscape:pageopacity="0.0"
     inkscape:pageshadow="2"
     inkscape:zoom="0.49497475"
     inkscape:cx="358.67561"
     inkscape:cy="320.2684"
     inkscape:document-units="mm"
     inkscape:current-layer="layer1"
     showgrid="false"
     inkscape:window-width="1867"
     inkscape:window-height="1025"
     inkscape:window-x="53"
     inkscape:window-y="27"
     inkscape:window-maximized="1" />
  <metadata
     id="metadata5371">
    <rdf:RDF>
      <cc:Work
         rdf:about="">
        <dc:format>image/svg+xml</dc:format>
        <dc:type
           rdf:resource="http://purl.org/dc/dcmitype/StillImage" />
        <dc:title></dc:title>
      </cc:Work>
    </rdf:RDF>
  </metadata>
  <g
     inkscape:label="Layer 1"
     inkscape:groupmode="layer"
     id="layer1"
     transform="translate(18.805544,-16.436127)">
    <path
       inkscape:connector-curvature="0"
       style="fill:#000000;fill-rule:evenodd;stroke:#000000;stroke-width:0.26458332px;stroke-linecap:butt;stroke-linejoin:miter;stroke-opacity:1"
       d="m -15.997211,113.0582 10.3105592,-0.0973 7.1006699,23.73373 7.8788201,-23.63646 10.3105508,-0.0973 -12.9368308,35.89241 -0.0973,24.80369 -11.38052,0.19454 0.0973,-24.70642 z"
       id="path1900"
       sodipodi:nodetypes="cccccccccc" />
    <path
       inkscape:connector-curvature="0"
       style="fill:#000000;fill-rule:evenodd;stroke:#000000;stroke-width:0.26458332px;stroke-linecap:butt;stroke-linejoin:miter;stroke-opacity:1"
       d="m 27.777819,113.06047 -11.77396,60.11002 9.82266,0.28939 2.33991,-13.70872 h 12.93151 l 2.24069,13.80794 h 10.79831 l -10.12031,-60.49863 z m 6.90397,9.62421 5.06016,26.75599 -9.63249,-0.0992 z"
       id="path1902" />
    <path
       inkscape:connector-curvature="0"
       style="fill:#000000;fill-rule:evenodd;stroke:#000000;stroke-width:0.26458332px;stroke-linecap:butt;stroke-linejoin:miter;stroke-opacity:1"
       d="m 59.872919,113.15547 v 60.11249 h 9.43514 v -45.61935 l 8.36516,39.78319 8.75425,0.0973 7.87882,-39.97773 v 45.81389 h 10.407831 v -60.7934 H 87.886509 l -5.15528,29.37535 -6.51705,-28.79174 z"
       id="path1906"
       sodipodi:nodetypes="cccccccccccccc" />
    <path
       inkscape:connector-curvature="0"
       style="fill:#000000;fill-rule:evenodd;stroke:#000000;stroke-width:0.26458332px;stroke-linecap:butt;stroke-linejoin:miter;stroke-opacity:1"
       d="m 153.73789,173.65704 10.11602,0.19454 0.0973,-27.52724 12.35321,-1e-5 v 27.13817 l 10.5051,0.0973 v -60.98791 h -10.79691 v 23.92827 h -11.86689 v -23.92827 l -10.40783,-0.0973 z"
       id="path1908"
       sodipodi:nodetypes="ccccccccccccc" />
    <path
       inkscape:connector-curvature="0"
       style="fill:#000000;fill-rule:evenodd;stroke:#000000;stroke-width:0.26458332px;stroke-linecap:butt;stroke-linejoin:miter;stroke-opacity:1"
       d="m 122.17619,113.03566 -11.76569,60.11829 9.82266,0.28939 2.33164,-13.71699 h 12.93978 l 2.23242,13.81621 h 10.79831 l -10.11204,-60.5069 z m 6.90398,9.63249 5.06015,26.74772 -9.63248,-0.0992 z"
       id="path1910" />
    <path
       inkscape:connector-curvature="0"
       style="fill:#000000;fill-rule:evenodd;stroke:#000000;stroke-width:0.26458332px;stroke-linecap:butt;stroke-linejoin:miter;stroke-opacity:1"
       d="m 203.44462,113.15142 -11.77396,60.11829 9.82266,0.28939 2.33991,-13.71699 h 12.93151 l 2.24069,13.81621 h 10.7983 l -10.12031,-60.5069 z m 6.90397,9.63248 5.06016,26.74772 -9.63249,-0.0909 z"
       id="path1914" />
  </g>
</svg>
