<?xml version="1.0" encoding="utf-8"?>
<!-- Generator: Adobe Illustrator 24.0.1, SVG Export Plug-In . SVG Version: 6.00 Build 0)  -->
<svg version="1.1" id="Layer_1" xmlns="http://www.w3.org/2000/svg" xmlns:xlink="http://www.w3.org/1999/xlink" x="0px" y="0px"
	 viewBox="0 0 61.4 61.4" style="enable-background:new 0 0 61.4 61.4;" xml:space="preserve">
<title>yamaha</title>
<g id="レイヤー_2">
	<g id="レイヤー_1-2">
		<path d="M30.7,0C13.7,0,0,13.7,0,30.7s13.7,30.7,30.7,30.7s30.7-13.7,30.7-30.7l0,0C61.4,13.7,47.7,0,30.7,0z M30.7,58
			c-15,0-27.2-12.2-27.2-27.3c0-15,12.2-27.2,27.3-27.2c15,0,27.2,12.2,27.2,27.2C58,45.8,45.8,58,30.7,58C30.8,58,30.7,58,30.7,58z
			"/>
		<path d="M53,43.1l-4.5-5.2c-0.1-0.1-0.1-0.1-0.2-0.2c-0.2-0.1-0.5-0.1-0.7,0l0,0c-0.7,0.3-1.5,0.3-2.2-0.1c-0.6-0.4-1-0.9-1.1-1.6
			l0,0c-0.3-1.7-1.4-3.2-2.9-4.1l-2-1.1l11.3-6.6l-1.4-2.4l-12.7,7.4L35,28.2v-1.8l12.8-7.4l-1.4-2.4L35,23.2v-2.3
			c0-1.8-0.7-3.4-2-4.6l0,0c-1-0.8-1.1-2.3-0.3-3.3c0.1-0.2,0.3-0.3,0.5-0.4c0.2-0.1,0.3-0.4,0.3-0.6c0-0.1,0-0.2,0-0.3l-2.4-6.5
			c-0.1-0.2-0.3-0.4-0.6-0.3c-0.2,0-0.3,0.2-0.3,0.3L28,11.7c0,0.1,0,0.2,0,0.3c0,0.3,0.1,0.5,0.3,0.6l0,0c1.1,0.7,1.3,2.2,0.6,3.3
			c-0.1,0.2-0.3,0.3-0.4,0.5c-1.3,1.1-2.1,2.8-2.1,4.6v2.3L15,16.6l-1.4,2.4l12.8,7.4v1.8l-1.5,0.9l-12.7-7.4l-1.4,2.4L22,30.7
			l-2,1.1c-1.5,0.9-2.6,2.4-2.9,4.1l0,0c-0.2,1.3-1.5,2.1-2.8,1.9c-0.2,0-0.4-0.1-0.6-0.2l0,0c-0.2-0.1-0.5-0.1-0.7,0
			c-0.1,0-0.1,0.1-0.2,0.2l-4.5,5.2c-0.2,0.2-0.1,0.5,0.1,0.7c0.1,0.1,0.2,0.1,0.4,0.1l6.7-1.3c0.1,0,0.2,0,0.2-0.1
			c0.2-0.1,0.4-0.4,0.4-0.6c0.1-1.3,1.3-2.3,2.6-2.1c0.2,0,0.4,0.1,0.6,0.1c1.7,0.6,3.5,0.4,5-0.5l2-1.2v13.1h2.8V36.6l1.5-0.9
			l1.5,0.9v14.7H35V38.2l2,1.2c1.5,0.9,3.3,1.1,5,0.5c1.2-0.4,2.6,0.2,3,1.4c0.1,0.2,0.1,0.4,0.1,0.6c0,0.3,0.2,0.5,0.4,0.6
			c0.1,0,0.1,0.1,0.2,0.1l6.7,1.3c0.3,0.1,0.5-0.1,0.6-0.3C53.1,43.3,53.1,43.1,53,43.1L53,43.1z M26.4,35l-3.8,2.2
			c-0.7,0.4-1.7,0.2-2.1-0.6c-0.4-0.7-0.2-1.7,0.6-2.1c0,0,0,0,0,0l3.7-2.2l1.5,0.9L26.4,35z M29.2,20.5c0-0.8,0.7-1.5,1.5-1.5
			s1.5,0.7,1.5,1.5l0,0v4.3l-1.5,0.9l-1.5-0.9V20.5z M32.5,31.7l-1.8,1l-1.8-1v-2l1.8-1l1.8,1V31.7z M40.9,36.6
			c-0.4,0.7-1.4,1-2.1,0.6L35,35v-1.8l1.5-0.9l3.7,2.2C41.1,34.9,41.3,35.9,40.9,36.6C40.9,36.6,40.9,36.6,40.9,36.6L40.9,36.6z"/>
	</g>
</g>
</svg>
